{"accessors":[{"name":"Node-Mesh_0_positions","componentType":5126,"count":4282,"min":[-3.3703486919403076,2.085973024368286,-2.9092977046966553],"max":[-3.1926982402801514,2.421562671661377,-2.688364028930664],"type":"VEC3","bufferView":0,"byteOffset":0},{"name":"Node-Mesh_0_normals","componentType":5126,"count":4282,"min":[-0.9996993541717529,-0.9049413204193115,-0.9992483854293823],"max":[0.9996993541717529,0.9049409627914429,0.9992483854293823],"type":"VEC3","bufferView":1,"byteOffset":0},{"name":"Node-Mesh_0_indices","componentType":5123,"count":14175,"min":[0],"max":[4281],"type":"SCALAR","bufferView":2,"byteOffset":0}],"asset":{"generator":"obj2gltf","version":"2.0"},"buffers":[{"name":"input","byteLength":131120,"uri":"data:application/octet-stream;base64,"}],"bufferViews":[{"name":"bufferView_0","buffer":0,"byteLength":51384,"byteOffset":0,"byteStride":12,"target":34962},{"name":"bufferView_1","buffer":0,"byteLength":51384,"byteOffset":51384,"byteStride":12,"target":34962},{"name":"bufferView_3","buffer":0,"byteLength":28352,"byteOffset":102768,"target":34963}],"materials":[{"name":"diffuse_0_0_0_255","pbrMetallicRoughness":{"baseColorFactor":[0.5,0.5,0.5,1],"metallicFactor":0,"roughnessFactor":1},"emissiveFactor":[0,0,0],"alphaMode":"OPAQUE","doubleSided":false}],"meshes":[{"name":"Node-Mesh","primitives":[{"attributes":{"POSITION":0,"NORMAL":1},"indices":2,"material":0,"mode":4}]}],"nodes":[{"name":"Node","mesh":0}],"scene":0,"scenes":[{"nodes":[0]}]}
