{"accessors":[{"name":"Node-Mesh_0_positions","componentType":5126,"count":511,"min":[1.6262786388397217,1.9959850311279297,4.6328349113464355],"max":[1.693742036819458,2.1466524600982666,4.697933673858643],"type":"VEC3","bufferView":0,"byteOffset":0},{"name":"Node-Mesh_0_normals","componentType":5126,"count":511,"min":[-0.9371427893638611,-0.8976421356201172,-0.9249848127365112],"max":[0.9474400877952576,0.8975947499275208,0.9249848127365112],"type":"VEC3","bufferView":1,"byteOffset":0},{"name":"Node-Mesh_0_indices","componentType":5123,"count":2034,"min":[0],"max":[510],"type":"SCALAR","bufferView":2,"byteOffset":0}],"asset":{"generator":"obj2gltf","version":"2.0"},"buffers":[{"name":"input","byteLength":16332,"uri":"data:application/octet-stream;base64,"}],"bufferViews":[{"name":"bufferView_0","buffer":0,"byteLength":6132,"byteOffset":0,"byteStride":12,"target":34962},{"name":"bufferView_1","buffer":0,"byteLength":6132,"byteOffset":6132,"byteStride":12,"target":34962},{"name":"bufferView_3","buffer":0,"byteLength":4068,"byteOffset":12264,"target":34963}],"materials":[{"name":"diffuse_0_0_0_255","pbrMetallicRoughness":{"baseColorFactor":[0.5,0.5,0.5,1],"metallicFactor":0,"roughnessFactor":1},"emissiveFactor":[0,0,0],"alphaMode":"OPAQUE","doubleSided":false}],"meshes":[{"name":"Node-Mesh","primitives":[{"attributes":{"POSITION":0,"NORMAL":1},"indices":2,"material":0,"mode":4}]}],"nodes":[{"name":"Node","mesh":0}],"scene":0,"scenes":[{"nodes":[0]}]}
