{"accessors":[{"name":"Node-Mesh_0_positions","componentType":5126,"count":2669,"min":[-2.8391196727752686,2.090982675552368,-3.3655521869659424],"max":[-2.7459869384765625,2.5194711685180664,-3.2906477451324463],"type":"VEC3","bufferView":0,"byteOffset":0},{"name":"Node-Mesh_0_normals","componentType":5126,"count":2669,"min":[-0.6787711977958679,-0.9049386978149414,-0.8026641607284546],"max":[0.6787711977958679,0.9049386978149414,0.8026641607284546],"type":"VEC3","bufferView":1,"byteOffset":0},{"name":"Node-Mesh_0_indices","componentType":5123,"count":11376,"min":[0],"max":[2668],"type":"SCALAR","bufferView":2,"byteOffset":0}],"asset":{"generator":"obj2gltf","version":"2.0"},"buffers":[{"name":"input","byteLength":86808,"uri":"data:application/octet-stream;base64,"}],"bufferViews":[{"name":"bufferView_0","buffer":0,"byteLength":32028,"byteOffset":0,"byteStride":12,"target":34962},{"name":"bufferView_1","buffer":0,"byteLength":32028,"byteOffset":32028,"byteStride":12,"target":34962},{"name":"bufferView_3","buffer":0,"byteLength":22752,"byteOffset":64056,"target":34963}],"materials":[{"name":"diffuse_0_0_0_255","pbrMetallicRoughness":{"baseColorFactor":[0.5,0.5,0.5,1],"metallicFactor":0,"roughnessFactor":1},"emissiveFactor":[0,0,0],"alphaMode":"OPAQUE","doubleSided":false}],"meshes":[{"name":"Node-Mesh","primitives":[{"attributes":{"POSITION":0,"NORMAL":1},"indices":2,"material":0,"mode":4}]}],"nodes":[{"name":"Node","mesh":0}],"scene":0,"scenes":[{"nodes":[0]}]}
