{"accessors":[{"name":"Node-Mesh_0_positions","componentType":5126,"count":502,"min":[-2.8454978466033936,2.046173572540283,3.6374266147613525],"max":[-2.6508641242980957,2.4348063468933105,3.840078353881836],"type":"VEC3","bufferView":0,"byteOffset":0},{"name":"Node-Mesh_0_normals","componentType":5126,"count":502,"min":[-0.8010011911392212,-0.9062231779098511,-0.7451012134552002],"max":[0.8011205792427063,0.9075292944908142,0.7451012134552002],"type":"VEC3","bufferView":1,"byteOffset":0},{"name":"Node-Mesh_0_indices","componentType":5123,"count":1611,"min":[0],"max":[501],"type":"SCALAR","bufferView":2,"byteOffset":0}],"asset":{"generator":"obj2gltf","version":"2.0"},"buffers":[{"name":"input","byteLength":15272,"uri":"data:application/octet-stream;base64,"}],"bufferViews":[{"name":"bufferView_0","buffer":0,"byteLength":6024,"byteOffset":0,"byteStride":12,"target":34962},{"name":"bufferView_1","buffer":0,"byteLength":6024,"byteOffset":6024,"byteStride":12,"target":34962},{"name":"bufferView_3","buffer":0,"byteLength":3224,"byteOffset":12048,"target":34963}],"materials":[{"name":"diffuse_0_0_0_255","pbrMetallicRoughness":{"baseColorFactor":[0.5,0.5,0.5,1],"metallicFactor":0,"roughnessFactor":1},"emissiveFactor":[0,0,0],"alphaMode":"OPAQUE","doubleSided":false}],"meshes":[{"name":"Node-Mesh","primitives":[{"attributes":{"POSITION":0,"NORMAL":1},"indices":2,"material":0,"mode":4}]}],"nodes":[{"name":"Node","mesh":0}],"scene":0,"scenes":[{"nodes":[0]}]}
