{"accessors":[{"name":"Node-Mesh_0_positions","componentType":5126,"count":1109,"min":[-4.180593013763428,2.0433545112609863,-0.4633523225784302],"max":[-4.1288251876831055,2.3421976566314697,-0.22931653261184692],"type":"VEC3","bufferView":0,"byteOffset":0},{"name":"Node-Mesh_0_normals","componentType":5126,"count":1109,"min":[-0.9988437294960022,-0.9067959189414978,-0.9915084838867188],"max":[0.9988437294960022,0.9066509008407593,0.9924328923225403],"type":"VEC3","bufferView":1,"byteOffset":0},{"name":"Node-Mesh_0_indices","componentType":5123,"count":4104,"min":[0],"max":[1108],"type":"SCALAR","bufferView":2,"byteOffset":0}],"asset":{"generator":"obj2gltf","version":"2.0"},"buffers":[{"name":"input","byteLength":34824,"uri":"data:application/octet-stream;base64,"}],"bufferViews":[{"name":"bufferView_0","buffer":0,"byteLength":13308,"byteOffset":0,"byteStride":12,"target":34962},{"name":"bufferView_1","buffer":0,"byteLength":13308,"byteOffset":13308,"byteStride":12,"target":34962},{"name":"bufferView_3","buffer":0,"byteLength":8208,"byteOffset":26616,"target":34963}],"materials":[{"name":"diffuse_0_0_0_255","pbrMetallicRoughness":{"baseColorFactor":[0.5,0.5,0.5,1],"metallicFactor":0,"roughnessFactor":1},"emissiveFactor":[0,0,0],"alphaMode":"OPAQUE","doubleSided":false}],"meshes":[{"name":"Node-Mesh","primitives":[{"attributes":{"POSITION":0,"NORMAL":1},"indices":2,"material":0,"mode":4}]}],"nodes":[{"name":"Node","mesh":0}],"scene":0,"scenes":[{"nodes":[0]}]}
