{"accessors":[{"name":"Node-Mesh_0_positions","componentType":5126,"count":946,"min":[-4.161632061004639,2.0433359146118164,-0.7445709109306335],"max":[-4.094456672668457,2.3413922786712646,-0.49268049001693726],"type":"VEC3","bufferView":0,"byteOffset":0},{"name":"Node-Mesh_0_normals","componentType":5126,"count":946,"min":[-0.9943023324012756,-0.9068026542663574,-0.9926567673683167],"max":[0.9943023324012756,0.9068025946617126,0.9923350214958191],"type":"VEC3","bufferView":1,"byteOffset":0},{"name":"Node-Mesh_0_indices","componentType":5123,"count":3360,"min":[0],"max":[945],"type":"SCALAR","bufferView":2,"byteOffset":0}],"asset":{"generator":"obj2gltf","version":"2.0"},"buffers":[{"name":"input","byteLength":29424,"uri":"data:application/octet-stream;base64,"}],"bufferViews":[{"name":"bufferView_0","buffer":0,"byteLength":11352,"byteOffset":0,"byteStride":12,"target":34962},{"name":"bufferView_1","buffer":0,"byteLength":11352,"byteOffset":11352,"byteStride":12,"target":34962},{"name":"bufferView_3","buffer":0,"byteLength":6720,"byteOffset":22704,"target":34963}],"materials":[{"name":"diffuse_0_0_0_255","pbrMetallicRoughness":{"baseColorFactor":[0.5,0.5,0.5,1],"metallicFactor":0,"roughnessFactor":1},"emissiveFactor":[0,0,0],"alphaMode":"OPAQUE","doubleSided":false}],"meshes":[{"name":"Node-Mesh","primitives":[{"attributes":{"POSITION":0,"NORMAL":1},"indices":2,"material":0,"mode":4}]}],"nodes":[{"name":"Node","mesh":0}],"scene":0,"scenes":[{"nodes":[0]}]}
