{"accessors":[{"name":"Node-Mesh_0_positions","componentType":5126,"count":449,"min":[2.330965280532837,2.0722203254699707,4.240588665008545],"max":[2.465681314468384,2.3649697303771973,4.361926555633545],"type":"VEC3","bufferView":0,"byteOffset":0},{"name":"Node-Mesh_0_normals","componentType":5126,"count":449,"min":[-0.941068708896637,-0.8976056575775146,-0.8514507412910461],"max":[0.9369415640830994,0.8975777626037598,0.8514507412910461],"type":"VEC3","bufferView":1,"byteOffset":0},{"name":"Node-Mesh_0_indices","componentType":5123,"count":1620,"min":[0],"max":[448],"type":"SCALAR","bufferView":2,"byteOffset":0}],"asset":{"generator":"obj2gltf","version":"2.0"},"buffers":[{"name":"input","byteLength":14016,"uri":"data:application/octet-stream;base64,"}],"bufferViews":[{"name":"bufferView_0","buffer":0,"byteLength":5388,"byteOffset":0,"byteStride":12,"target":34962},{"name":"bufferView_1","buffer":0,"byteLength":5388,"byteOffset":5388,"byteStride":12,"target":34962},{"name":"bufferView_3","buffer":0,"byteLength":3240,"byteOffset":10776,"target":34963}],"materials":[{"name":"diffuse_0_0_0_255","pbrMetallicRoughness":{"baseColorFactor":[0.5,0.5,0.5,1],"metallicFactor":0,"roughnessFactor":1},"emissiveFactor":[0,0,0],"alphaMode":"OPAQUE","doubleSided":false}],"meshes":[{"name":"Node-Mesh","primitives":[{"attributes":{"POSITION":0,"NORMAL":1},"indices":2,"material":0,"mode":4}]}],"nodes":[{"name":"Node","mesh":0}],"scene":0,"scenes":[{"nodes":[0]}]}
