{"accessors":[{"name":"Node-Mesh_0_positions","componentType":5126,"count":4239,"min":[-3.8437271118164062,2.0859920978546143,-2.0534963607788086],"max":[-3.7140002250671387,2.4215376377105713,-1.7948310375213623],"type":"VEC3","bufferView":0,"byteOffset":0},{"name":"Node-Mesh_0_normals","componentType":5126,"count":4239,"min":[-0.9993374943733215,-0.9049113392829895,-0.9994565844535828],"max":[0.9993374943733215,0.904798150062561,0.9994565844535828],"type":"VEC3","bufferView":1,"byteOffset":0},{"name":"Node-Mesh_0_indices","componentType":5123,"count":14064,"min":[0],"max":[4238],"type":"SCALAR","bufferView":2,"byteOffset":0}],"asset":{"generator":"obj2gltf","version":"2.0"},"buffers":[{"name":"input","byteLength":129864,"uri":"data:application/octet-stream;base64,"}],"bufferViews":[{"name":"bufferView_0","buffer":0,"byteLength":50868,"byteOffset":0,"byteStride":12,"target":34962},{"name":"bufferView_1","buffer":0,"byteLength":50868,"byteOffset":50868,"byteStride":12,"target":34962},{"name":"bufferView_3","buffer":0,"byteLength":28128,"byteOffset":101736,"target":34963}],"materials":[{"name":"diffuse_0_0_0_255","pbrMetallicRoughness":{"baseColorFactor":[0.5,0.5,0.5,1],"metallicFactor":0,"roughnessFactor":1},"emissiveFactor":[0,0,0],"alphaMode":"OPAQUE","doubleSided":false}],"meshes":[{"name":"Node-Mesh","primitives":[{"attributes":{"POSITION":0,"NORMAL":1},"indices":2,"material":0,"mode":4}]}],"nodes":[{"name":"Node","mesh":0}],"scene":0,"scenes":[{"nodes":[0]}]}
