{"accessors":[{"name":"Node-Mesh_0_positions","componentType":5126,"count":824,"min":[-0.7171969413757324,2.083026885986328,4.639614105224609],"max":[-0.4992356598377228,2.3742997646331787,4.791497230529785],"type":"VEC3","bufferView":0,"byteOffset":0},{"name":"Node-Mesh_0_normals","componentType":5126,"count":824,"min":[-0.9872065782546997,-0.9160642027854919,-0.9186129570007324],"max":[0.9854359030723572,0.9157497882843018,0.9186129570007324],"type":"VEC3","bufferView":1,"byteOffset":0},{"name":"Node-Mesh_0_indices","componentType":5123,"count":3165,"min":[0],"max":[823],"type":"SCALAR","bufferView":2,"byteOffset":0}],"asset":{"generator":"obj2gltf","version":"2.0"},"buffers":[{"name":"input","byteLength":26108,"uri":"data:application/octet-stream;base64,"}],"bufferViews":[{"name":"bufferView_0","buffer":0,"byteLength":9888,"byteOffset":0,"byteStride":12,"target":34962},{"name":"bufferView_1","buffer":0,"byteLength":9888,"byteOffset":9888,"byteStride":12,"target":34962},{"name":"bufferView_3","buffer":0,"byteLength":6332,"byteOffset":19776,"target":34963}],"materials":[{"name":"diffuse_0_0_0_255","pbrMetallicRoughness":{"baseColorFactor":[0.5,0.5,0.5,1],"metallicFactor":0,"roughnessFactor":1},"emissiveFactor":[0,0,0],"alphaMode":"OPAQUE","doubleSided":false}],"meshes":[{"name":"Node-Mesh","primitives":[{"attributes":{"POSITION":0,"NORMAL":1},"indices":2,"material":0,"mode":4}]}],"nodes":[{"name":"Node","mesh":0}],"scene":0,"scenes":[{"nodes":[0]}]}
