{"accessors":[{"name":"Node-Mesh_0_positions","componentType":5126,"count":705,"min":[-3.9674484729766846,2.089292526245117,1.6545413732528687],"max":[-3.8278729915618896,2.381373405456543,1.9005885124206543],"type":"VEC3","bufferView":0,"byteOffset":0},{"name":"Node-Mesh_0_normals","componentType":5126,"count":705,"min":[-0.9418426156044006,-0.9134302735328674,-0.9411913156509399],"max":[0.9418426156044006,0.9133299589157104,0.9411755204200745],"type":"VEC3","bufferView":1,"byteOffset":0},{"name":"Node-Mesh_0_indices","componentType":5123,"count":2541,"min":[0],"max":[704],"type":"SCALAR","bufferView":2,"byteOffset":0}],"asset":{"generator":"obj2gltf","version":"2.0"},"buffers":[{"name":"input","byteLength":22004,"uri":"data:application/octet-stream;base64,"}],"bufferViews":[{"name":"bufferView_0","buffer":0,"byteLength":8460,"byteOffset":0,"byteStride":12,"target":34962},{"name":"bufferView_1","buffer":0,"byteLength":8460,"byteOffset":8460,"byteStride":12,"target":34962},{"name":"bufferView_3","buffer":0,"byteLength":5084,"byteOffset":16920,"target":34963}],"materials":[{"name":"diffuse_0_0_0_255","pbrMetallicRoughness":{"baseColorFactor":[0.5,0.5,0.5,1],"metallicFactor":0,"roughnessFactor":1},"emissiveFactor":[0,0,0],"alphaMode":"OPAQUE","doubleSided":false}],"meshes":[{"name":"Node-Mesh","primitives":[{"attributes":{"POSITION":0,"NORMAL":1},"indices":2,"material":0,"mode":4}]}],"nodes":[{"name":"Node","mesh":0}],"scene":0,"scenes":[{"nodes":[0]}]}
