{"accessors":[{"name":"Node-Mesh_0_positions","componentType":5126,"count":1144,"min":[4.6650166511535645,2.0350053310394287,-1.9161914587020874],"max":[4.791053295135498,2.3264081478118896,-1.5221227407455444],"type":"VEC3","bufferView":0,"byteOffset":0},{"name":"Node-Mesh_0_normals","componentType":5126,"count":1144,"min":[-0.983927845954895,-0.9135341048240662,-0.9279918074607849],"max":[0.983927845954895,0.9135408401489258,0.9264360666275024],"type":"VEC3","bufferView":1,"byteOffset":0},{"name":"Node-Mesh_0_indices","componentType":5123,"count":4059,"min":[0],"max":[1143],"type":"SCALAR","bufferView":2,"byteOffset":0}],"asset":{"generator":"obj2gltf","version":"2.0"},"buffers":[{"name":"input","byteLength":35576,"uri":"data:application/octet-stream;base64,"}],"bufferViews":[{"name":"bufferView_0","buffer":0,"byteLength":13728,"byteOffset":0,"byteStride":12,"target":34962},{"name":"bufferView_1","buffer":0,"byteLength":13728,"byteOffset":13728,"byteStride":12,"target":34962},{"name":"bufferView_3","buffer":0,"byteLength":8120,"byteOffset":27456,"target":34963}],"materials":[{"name":"diffuse_0_0_0_255","pbrMetallicRoughness":{"baseColorFactor":[0.5,0.5,0.5,1],"metallicFactor":0,"roughnessFactor":1},"emissiveFactor":[0,0,0],"alphaMode":"OPAQUE","doubleSided":false}],"meshes":[{"name":"Node-Mesh","primitives":[{"attributes":{"POSITION":0,"NORMAL":1},"indices":2,"material":0,"mode":4}]}],"nodes":[{"name":"Node","mesh":0}],"scene":0,"scenes":[{"nodes":[0]}]}
