{"accessors":[{"name":"Node-Mesh_0_positions","componentType":5126,"count":991,"min":[1.7357419729232788,2.0660829544067383,4.523629188537598],"max":[1.9741500616073608,2.3649191856384277,4.662729263305664],"type":"VEC3","bufferView":0,"byteOffset":0},{"name":"Node-Mesh_0_normals","componentType":5126,"count":991,"min":[-0.9492599368095398,-0.8974856734275818,-0.9137104749679565],"max":[0.9492495656013489,0.8974097371101379,0.9137104749679565],"type":"VEC3","bufferView":1,"byteOffset":0},{"name":"Node-Mesh_0_indices","componentType":5123,"count":3519,"min":[0],"max":[990],"type":"SCALAR","bufferView":2,"byteOffset":0}],"asset":{"generator":"obj2gltf","version":"2.0"},"buffers":[{"name":"input","byteLength":30824,"uri":"data:application/octet-stream;base64,"}],"bufferViews":[{"name":"bufferView_0","buffer":0,"byteLength":11892,"byteOffset":0,"byteStride":12,"target":34962},{"name":"bufferView_1","buffer":0,"byteLength":11892,"byteOffset":11892,"byteStride":12,"target":34962},{"name":"bufferView_3","buffer":0,"byteLength":7040,"byteOffset":23784,"target":34963}],"materials":[{"name":"diffuse_0_0_0_255","pbrMetallicRoughness":{"baseColorFactor":[0.5,0.5,0.5,1],"metallicFactor":0,"roughnessFactor":1},"emissiveFactor":[0,0,0],"alphaMode":"OPAQUE","doubleSided":false}],"meshes":[{"name":"Node-Mesh","primitives":[{"attributes":{"POSITION":0,"NORMAL":1},"indices":2,"material":0,"mode":4}]}],"nodes":[{"name":"Node","mesh":0}],"scene":0,"scenes":[{"nodes":[0]}]}
