{"accessors":[{"name":"Node-Mesh_0_positions","componentType":5126,"count":856,"min":[-2.642995595932007,2.040259599685669,3.842722177505493],"max":[-2.4359681606292725,2.33864426612854,4.035043716430664],"type":"VEC3","bufferView":0,"byteOffset":0},{"name":"Node-Mesh_0_normals","componentType":5126,"count":856,"min":[-0.8388189077377319,-0.9079636931419373,-0.7723414897918701],"max":[0.8388893008232117,0.9079333543777466,0.7723414897918701],"type":"VEC3","bufferView":1,"byteOffset":0},{"name":"Node-Mesh_0_indices","componentType":5123,"count":3024,"min":[0],"max":[855],"type":"SCALAR","bufferView":2,"byteOffset":0}],"asset":{"generator":"obj2gltf","version":"2.0"},"buffers":[{"name":"input","byteLength":26592,"uri":"data:application/octet-stream;base64,"}],"bufferViews":[{"name":"bufferView_0","buffer":0,"byteLength":10272,"byteOffset":0,"byteStride":12,"target":34962},{"name":"bufferView_1","buffer":0,"byteLength":10272,"byteOffset":10272,"byteStride":12,"target":34962},{"name":"bufferView_3","buffer":0,"byteLength":6048,"byteOffset":20544,"target":34963}],"materials":[{"name":"diffuse_0_0_0_255","pbrMetallicRoughness":{"baseColorFactor":[0.5,0.5,0.5,1],"metallicFactor":0,"roughnessFactor":1},"emissiveFactor":[0,0,0],"alphaMode":"OPAQUE","doubleSided":false}],"meshes":[{"name":"Node-Mesh","primitives":[{"attributes":{"POSITION":0,"NORMAL":1},"indices":2,"material":0,"mode":4}]}],"nodes":[{"name":"Node","mesh":0}],"scene":0,"scenes":[{"nodes":[0]}]}
