{"accessors":[{"name":"Node-Mesh_0_positions","componentType":5126,"count":908,"min":[4.767451763153076,2.0289037227630615,-1.4844821691513062],"max":[4.83475399017334,2.326399326324463,-1.213967204093933],"type":"VEC3","bufferView":0,"byteOffset":0},{"name":"Node-Mesh_0_normals","componentType":5126,"count":908,"min":[-0.9936483502388,-0.9132307767868042,-0.9280012249946594],"max":[0.9936483502388,0.9136477708816528,0.9280080795288086],"type":"VEC3","bufferView":1,"byteOffset":0},{"name":"Node-Mesh_0_indices","componentType":5123,"count":3132,"min":[0],"max":[907],"type":"SCALAR","bufferView":2,"byteOffset":0}],"asset":{"generator":"obj2gltf","version":"2.0"},"buffers":[{"name":"input","byteLength":28056,"uri":"data:application/octet-stream;base64,"}],"bufferViews":[{"name":"bufferView_0","buffer":0,"byteLength":10896,"byteOffset":0,"byteStride":12,"target":34962},{"name":"bufferView_1","buffer":0,"byteLength":10896,"byteOffset":10896,"byteStride":12,"target":34962},{"name":"bufferView_3","buffer":0,"byteLength":6264,"byteOffset":21792,"target":34963}],"materials":[{"name":"diffuse_0_0_0_255","pbrMetallicRoughness":{"baseColorFactor":[0.5,0.5,0.5,1],"metallicFactor":0,"roughnessFactor":1},"emissiveFactor":[0,0,0],"alphaMode":"OPAQUE","doubleSided":false}],"meshes":[{"name":"Node-Mesh","primitives":[{"attributes":{"POSITION":0,"NORMAL":1},"indices":2,"material":0,"mode":4}]}],"nodes":[{"name":"Node","mesh":0}],"scene":0,"scenes":[{"nodes":[0]}]}
