{"accessors":[{"name":"Node-Mesh_0_positions","componentType":5126,"count":1628,"min":[-2.4445786476135254,2.038787841796875,4.031738758087158],"max":[-2.2160675525665283,2.338135004043579,4.210291862487793],"type":"VEC3","bufferView":0,"byteOffset":0},{"name":"Node-Mesh_0_normals","componentType":5126,"count":1628,"min":[-0.838529109954834,-0.9080662727355957,-0.8180710077285767],"max":[0.8388495445251465,0.9080038666725159,0.8180710077285767],"type":"VEC3","bufferView":1,"byteOffset":0},{"name":"Node-Mesh_0_indices","componentType":5123,"count":6675,"min":[0],"max":[1627],"type":"SCALAR","bufferView":2,"byteOffset":0}],"asset":{"generator":"obj2gltf","version":"2.0"},"buffers":[{"name":"input","byteLength":52424,"uri":"data:application/octet-stream;base64,"}],"bufferViews":[{"name":"bufferView_0","buffer":0,"byteLength":19536,"byteOffset":0,"byteStride":12,"target":34962},{"name":"bufferView_1","buffer":0,"byteLength":19536,"byteOffset":19536,"byteStride":12,"target":34962},{"name":"bufferView_3","buffer":0,"byteLength":13352,"byteOffset":39072,"target":34963}],"materials":[{"name":"diffuse_0_0_0_255","pbrMetallicRoughness":{"baseColorFactor":[0.5,0.5,0.5,1],"metallicFactor":0,"roughnessFactor":1},"emissiveFactor":[0,0,0],"alphaMode":"OPAQUE","doubleSided":false}],"meshes":[{"name":"Node-Mesh","primitives":[{"attributes":{"POSITION":0,"NORMAL":1},"indices":2,"material":0,"mode":4}]}],"nodes":[{"name":"Node","mesh":0}],"scene":0,"scenes":[{"nodes":[0]}]}
