{"accessors":[{"name":"Node-Mesh_0_positions","componentType":5126,"count":1953,"min":[3.9000110626220703,2.0698606967926025,2.6329832077026367],"max":[4.060241222381592,2.3708395957946777,2.872300386428833],"type":"VEC3","bufferView":0,"byteOffset":0},{"name":"Node-Mesh_0_normals","componentType":5126,"count":1953,"min":[-0.8592520356178284,-0.887467086315155,-0.8436349630355835],"max":[0.8592520356178284,0.8875400424003601,0.8430547118186951],"type":"VEC3","bufferView":1,"byteOffset":0},{"name":"Node-Mesh_0_indices","componentType":5123,"count":8229,"min":[0],"max":[1952],"type":"SCALAR","bufferView":2,"byteOffset":0}],"asset":{"generator":"obj2gltf","version":"2.0"},"buffers":[{"name":"input","byteLength":63332,"uri":"data:application/octet-stream;base64,"}],"bufferViews":[{"name":"bufferView_0","buffer":0,"byteLength":23436,"byteOffset":0,"byteStride":12,"target":34962},{"name":"bufferView_1","buffer":0,"byteLength":23436,"byteOffset":23436,"byteStride":12,"target":34962},{"name":"bufferView_3","buffer":0,"byteLength":16460,"byteOffset":46872,"target":34963}],"materials":[{"name":"diffuse_0_0_0_255","pbrMetallicRoughness":{"baseColorFactor":[0.5,0.5,0.5,1],"metallicFactor":0,"roughnessFactor":1},"emissiveFactor":[0,0,0],"alphaMode":"OPAQUE","doubleSided":false}],"meshes":[{"name":"Node-Mesh","primitives":[{"attributes":{"POSITION":0,"NORMAL":1},"indices":2,"material":0,"mode":4}]}],"nodes":[{"name":"Node","mesh":0}],"scene":0,"scenes":[{"nodes":[0]}]}
