{"accessors":[{"name":"Node-Mesh_0_positions","componentType":5126,"count":845,"min":[-4.190787315368652,2.0494461059570312,-0.016891149803996086],"max":[-4.151041030883789,2.4380855560302734,0.033017490059137344],"type":"VEC3","bufferView":0,"byteOffset":0},{"name":"Node-Mesh_0_normals","componentType":5126,"count":845,"min":[-0.9999669194221497,-0.9060234427452087,-0.9911363124847412],"max":[0.9999669194221497,0.9059390425682068,0.9911360144615173],"type":"VEC3","bufferView":1,"byteOffset":0},{"name":"Node-Mesh_0_indices","componentType":5123,"count":3330,"min":[0],"max":[844],"type":"SCALAR","bufferView":2,"byteOffset":0}],"asset":{"generator":"obj2gltf","version":"2.0"},"buffers":[{"name":"input","byteLength":26940,"uri":"data:application/octet-stream;base64,"}],"bufferViews":[{"name":"bufferView_0","buffer":0,"byteLength":10140,"byteOffset":0,"byteStride":12,"target":34962},{"name":"bufferView_1","buffer":0,"byteLength":10140,"byteOffset":10140,"byteStride":12,"target":34962},{"name":"bufferView_3","buffer":0,"byteLength":6660,"byteOffset":20280,"target":34963}],"materials":[{"name":"diffuse_0_0_0_255","pbrMetallicRoughness":{"baseColorFactor":[0.5,0.5,0.5,1],"metallicFactor":0,"roughnessFactor":1},"emissiveFactor":[0,0,0],"alphaMode":"OPAQUE","doubleSided":false}],"meshes":[{"name":"Node-Mesh","primitives":[{"attributes":{"POSITION":0,"NORMAL":1},"indices":2,"material":0,"mode":4}]}],"nodes":[{"name":"Node","mesh":0}],"scene":0,"scenes":[{"nodes":[0]}]}
