{"accessors":[{"name":"Node-Mesh_0_positions","componentType":5126,"count":870,"min":[-2.2028565406799316,2.0405523777008057,4.192902565002441],"max":[-1.9352056980133057,2.434828281402588,4.374866962432861],"type":"VEC3","bufferView":0,"byteOffset":0},{"name":"Node-Mesh_0_normals","componentType":5126,"count":870,"min":[-0.8386915922164917,-0.9076175689697266,-0.8696553111076355],"max":[0.8364744186401367,0.9076032042503357,0.8696553111076355],"type":"VEC3","bufferView":1,"byteOffset":0},{"name":"Node-Mesh_0_indices","componentType":5123,"count":3225,"min":[0],"max":[869],"type":"SCALAR","bufferView":2,"byteOffset":0}],"asset":{"generator":"obj2gltf","version":"2.0"},"buffers":[{"name":"input","byteLength":27332,"uri":"data:application/octet-stream;base64,"}],"bufferViews":[{"name":"bufferView_0","buffer":0,"byteLength":10440,"byteOffset":0,"byteStride":12,"target":34962},{"name":"bufferView_1","buffer":0,"byteLength":10440,"byteOffset":10440,"byteStride":12,"target":34962},{"name":"bufferView_3","buffer":0,"byteLength":6452,"byteOffset":20880,"target":34963}],"materials":[{"name":"diffuse_0_0_0_255","pbrMetallicRoughness":{"baseColorFactor":[0.5,0.5,0.5,1],"metallicFactor":0,"roughnessFactor":1},"emissiveFactor":[0,0,0],"alphaMode":"OPAQUE","doubleSided":false}],"meshes":[{"name":"Node-Mesh","primitives":[{"attributes":{"POSITION":0,"NORMAL":1},"indices":2,"material":0,"mode":4}]}],"nodes":[{"name":"Node","mesh":0}],"scene":0,"scenes":[{"nodes":[0]}]}
