{"accessors":[{"name":"Node-Mesh_0_positions","componentType":5126,"count":965,"min":[0.5265129208564758,2.077390432357788,4.889553546905518],"max":[0.7974666357040405,2.470930576324463,4.980466365814209],"type":"VEC3","bufferView":0,"byteOffset":0},{"name":"Node-Mesh_0_normals","componentType":5126,"count":965,"min":[-0.9873639941215515,-0.9161117672920227,-0.9896929860115051],"max":[0.9875465631484985,0.9161040186882019,0.9896929860115051],"type":"VEC3","bufferView":1,"byteOffset":0},{"name":"Node-Mesh_0_indices","componentType":5123,"count":3588,"min":[0],"max":[964],"type":"SCALAR","bufferView":2,"byteOffset":0}],"asset":{"generator":"obj2gltf","version":"2.0"},"buffers":[{"name":"input","byteLength":30336,"uri":"data:application/octet-stream;base64,"}],"bufferViews":[{"name":"bufferView_0","buffer":0,"byteLength":11580,"byteOffset":0,"byteStride":12,"target":34962},{"name":"bufferView_1","buffer":0,"byteLength":11580,"byteOffset":11580,"byteStride":12,"target":34962},{"name":"bufferView_3","buffer":0,"byteLength":7176,"byteOffset":23160,"target":34963}],"materials":[{"name":"diffuse_0_0_0_255","pbrMetallicRoughness":{"baseColorFactor":[0.5,0.5,0.5,1],"metallicFactor":0,"roughnessFactor":1},"emissiveFactor":[0,0,0],"alphaMode":"OPAQUE","doubleSided":false}],"meshes":[{"name":"Node-Mesh","primitives":[{"attributes":{"POSITION":0,"NORMAL":1},"indices":2,"material":0,"mode":4}]}],"nodes":[{"name":"Node","mesh":0}],"scene":0,"scenes":[{"nodes":[0]}]}
