{"accessors":[{"name":"Node-Mesh_0_positions","componentType":5126,"count":896,"min":[2.5905873775482178,2.0662786960601807,4.006884574890137],"max":[2.8082942962646484,2.365401029586792,4.186822891235352],"type":"VEC3","bufferView":0,"byteOffset":0},{"name":"Node-Mesh_0_normals","componentType":5126,"count":896,"min":[-0.949327826499939,-0.8976375460624695,-0.8250091671943665],"max":[0.9493014812469482,0.8976294994354248,0.8250091671943665],"type":"VEC3","bufferView":1,"byteOffset":0},{"name":"Node-Mesh_0_indices","componentType":5123,"count":3264,"min":[0],"max":[895],"type":"SCALAR","bufferView":2,"byteOffset":0}],"asset":{"generator":"obj2gltf","version":"2.0"},"buffers":[{"name":"input","byteLength":28032,"uri":"data:application/octet-stream;base64,"}],"bufferViews":[{"name":"bufferView_0","buffer":0,"byteLength":10752,"byteOffset":0,"byteStride":12,"target":34962},{"name":"bufferView_1","buffer":0,"byteLength":10752,"byteOffset":10752,"byteStride":12,"target":34962},{"name":"bufferView_3","buffer":0,"byteLength":6528,"byteOffset":21504,"target":34963}],"materials":[{"name":"diffuse_0_0_0_255","pbrMetallicRoughness":{"baseColorFactor":[0.5,0.5,0.5,1],"metallicFactor":0,"roughnessFactor":1},"emissiveFactor":[0,0,0],"alphaMode":"OPAQUE","doubleSided":false}],"meshes":[{"name":"Node-Mesh","primitives":[{"attributes":{"POSITION":0,"NORMAL":1},"indices":2,"material":0,"mode":4}]}],"nodes":[{"name":"Node","mesh":0}],"scene":0,"scenes":[{"nodes":[0]}]}
