{"accessors":[{"name":"Node-Mesh_0_positions","componentType":5126,"count":892,"min":[2.967773675918579,1.9672032594680786,-3.7464640140533447],"max":[3.2344701290130615,2.363633871078491,-3.599963426589966],"type":"VEC3","bufferView":0,"byteOffset":0},{"name":"Node-Mesh_0_normals","componentType":5126,"count":892,"min":[-0.846927285194397,-0.8912597894668579,-0.9277949333190918],"max":[0.8482723236083984,0.8912516832351685,0.9277949333190918],"type":"VEC3","bufferView":1,"byteOffset":0},{"name":"Node-Mesh_0_indices","componentType":5123,"count":3327,"min":[0],"max":[891],"type":"SCALAR","bufferView":2,"byteOffset":0}],"asset":{"generator":"obj2gltf","version":"2.0"},"buffers":[{"name":"input","byteLength":28064,"uri":"data:application/octet-stream;base64,"}],"bufferViews":[{"name":"bufferView_0","buffer":0,"byteLength":10704,"byteOffset":0,"byteStride":12,"target":34962},{"name":"bufferView_1","buffer":0,"byteLength":10704,"byteOffset":10704,"byteStride":12,"target":34962},{"name":"bufferView_3","buffer":0,"byteLength":6656,"byteOffset":21408,"target":34963}],"materials":[{"name":"diffuse_0_0_0_255","pbrMetallicRoughness":{"baseColorFactor":[0.5,0.5,0.5,1],"metallicFactor":0,"roughnessFactor":1},"emissiveFactor":[0,0,0],"alphaMode":"OPAQUE","doubleSided":false}],"meshes":[{"name":"Node-Mesh","primitives":[{"attributes":{"POSITION":0,"NORMAL":1},"indices":2,"material":0,"mode":4}]}],"nodes":[{"name":"Node","mesh":0}],"scene":0,"scenes":[{"nodes":[0]}]}
