{"accessors":[{"name":"Node-Mesh_0_positions","componentType":5126,"count":796,"min":[-4.130600452423096,2.048240900039673,-0.8374598622322083],"max":[-4.067226409912109,2.4393069744110107,-0.7861588597297668],"type":"VEC3","bufferView":0,"byteOffset":0},{"name":"Node-Mesh_0_normals","componentType":5126,"count":796,"min":[-0.9872161746025085,-0.906768262386322,-0.9911478757858276],"max":[0.9872161746025085,0.906653642654419,0.991148829460144],"type":"VEC3","bufferView":1,"byteOffset":0},{"name":"Node-Mesh_0_indices","componentType":5123,"count":3606,"min":[0],"max":[795],"type":"SCALAR","bufferView":2,"byteOffset":0}],"asset":{"generator":"obj2gltf","version":"2.0"},"buffers":[{"name":"input","byteLength":26316,"uri":"data:application/octet-stream;base64,"}],"bufferViews":[{"name":"bufferView_0","buffer":0,"byteLength":9552,"byteOffset":0,"byteStride":12,"target":34962},{"name":"bufferView_1","buffer":0,"byteLength":9552,"byteOffset":9552,"byteStride":12,"target":34962},{"name":"bufferView_3","buffer":0,"byteLength":7212,"byteOffset":19104,"target":34963}],"materials":[{"name":"diffuse_0_0_0_255","pbrMetallicRoughness":{"baseColorFactor":[0.5,0.5,0.5,1],"metallicFactor":0,"roughnessFactor":1},"emissiveFactor":[0,0,0],"alphaMode":"OPAQUE","doubleSided":false}],"meshes":[{"name":"Node-Mesh","primitives":[{"attributes":{"POSITION":0,"NORMAL":1},"indices":2,"material":0,"mode":4}]}],"nodes":[{"name":"Node","mesh":0}],"scene":0,"scenes":[{"nodes":[0]}]}
