{"accessors":[{"name":"Node-Mesh_0_positions","componentType":5126,"count":759,"min":[4.578927993774414,2.03480863571167,-2.2114243507385254],"max":[4.661292552947998,2.4011473655700684,-2.0544614791870117],"type":"VEC3","bufferView":0,"byteOffset":0},{"name":"Node-Mesh_0_normals","componentType":5126,"count":759,"min":[-0.9463081359863281,-0.9136384129524231,-0.9271936416625977],"max":[0.9463081359863281,0.913659930229187,0.9279406070709229],"type":"VEC3","bufferView":1,"byteOffset":0},{"name":"Node-Mesh_0_indices","componentType":5123,"count":3249,"min":[0],"max":[758],"type":"SCALAR","bufferView":2,"byteOffset":0}],"asset":{"generator":"obj2gltf","version":"2.0"},"buffers":[{"name":"input","byteLength":24716,"uri":"data:application/octet-stream;base64,"}],"bufferViews":[{"name":"bufferView_0","buffer":0,"byteLength":9108,"byteOffset":0,"byteStride":12,"target":34962},{"name":"bufferView_1","buffer":0,"byteLength":9108,"byteOffset":9108,"byteStride":12,"target":34962},{"name":"bufferView_3","buffer":0,"byteLength":6500,"byteOffset":18216,"target":34963}],"materials":[{"name":"diffuse_0_0_0_255","pbrMetallicRoughness":{"baseColorFactor":[0.5,0.5,0.5,1],"metallicFactor":0,"roughnessFactor":1},"emissiveFactor":[0,0,0],"alphaMode":"OPAQUE","doubleSided":false}],"meshes":[{"name":"Node-Mesh","primitives":[{"attributes":{"POSITION":0,"NORMAL":1},"indices":2,"material":0,"mode":4}]}],"nodes":[{"name":"Node","mesh":0}],"scene":0,"scenes":[{"nodes":[0]}]}
