{"accessors":[{"name":"Node-Mesh_0_positions","componentType":5126,"count":711,"min":[-4.1866984367370605,2.049238443374634,-0.20197677612304688],"max":[-4.1467180252075195,2.416149139404297,-0.05256523936986923],"type":"VEC3","bufferView":0,"byteOffset":0},{"name":"Node-Mesh_0_normals","componentType":5126,"count":711,"min":[-0.9998908042907715,-0.9062625169754028,-0.9911341071128845],"max":[0.9998908042907715,0.9067577123641968,0.9911489486694336],"type":"VEC3","bufferView":1,"byteOffset":0},{"name":"Node-Mesh_0_indices","componentType":5123,"count":2970,"min":[0],"max":[710],"type":"SCALAR","bufferView":2,"byteOffset":0}],"asset":{"generator":"obj2gltf","version":"2.0"},"buffers":[{"name":"input","byteLength":23004,"uri":"data:application/octet-stream;base64,"}],"bufferViews":[{"name":"bufferView_0","buffer":0,"byteLength":8532,"byteOffset":0,"byteStride":12,"target":34962},{"name":"bufferView_1","buffer":0,"byteLength":8532,"byteOffset":8532,"byteStride":12,"target":34962},{"name":"bufferView_3","buffer":0,"byteLength":5940,"byteOffset":17064,"target":34963}],"materials":[{"name":"diffuse_0_0_0_255","pbrMetallicRoughness":{"baseColorFactor":[0.5,0.5,0.5,1],"metallicFactor":0,"roughnessFactor":1},"emissiveFactor":[0,0,0],"alphaMode":"OPAQUE","doubleSided":false}],"meshes":[{"name":"Node-Mesh","primitives":[{"attributes":{"POSITION":0,"NORMAL":1},"indices":2,"material":0,"mode":4}]}],"nodes":[{"name":"Node","mesh":0}],"scene":0,"scenes":[{"nodes":[0]}]}
