{"accessors":[{"name":"Node-Mesh_0_positions","componentType":5126,"count":825,"min":[-0.029054803773760796,2.083019256591797,4.882834434509277],"max":[0.2006388157606125,2.374279737472534,4.978183269500732],"type":"VEC3","bufferView":0,"byteOffset":0},{"name":"Node-Mesh_0_normals","componentType":5126,"count":825,"min":[-0.9876317381858826,-0.916114330291748,-0.9891014695167542],"max":[0.985727846622467,0.9160292148590088,0.9891014695167542],"type":"VEC3","bufferView":1,"byteOffset":0},{"name":"Node-Mesh_0_indices","componentType":5123,"count":3186,"min":[0],"max":[824],"type":"SCALAR","bufferView":2,"byteOffset":0}],"asset":{"generator":"obj2gltf","version":"2.0"},"buffers":[{"name":"input","byteLength":26172,"uri":"data:application/octet-stream;base64,"}],"bufferViews":[{"name":"bufferView_0","buffer":0,"byteLength":9900,"byteOffset":0,"byteStride":12,"target":34962},{"name":"bufferView_1","buffer":0,"byteLength":9900,"byteOffset":9900,"byteStride":12,"target":34962},{"name":"bufferView_3","buffer":0,"byteLength":6372,"byteOffset":19800,"target":34963}],"materials":[{"name":"diffuse_0_0_0_255","pbrMetallicRoughness":{"baseColorFactor":[0.5,0.5,0.5,1],"metallicFactor":0,"roughnessFactor":1},"emissiveFactor":[0,0,0],"alphaMode":"OPAQUE","doubleSided":false}],"meshes":[{"name":"Node-Mesh","primitives":[{"attributes":{"POSITION":0,"NORMAL":1},"indices":2,"material":0,"mode":4}]}],"nodes":[{"name":"Node","mesh":0}],"scene":0,"scenes":[{"nodes":[0]}]}
