{"accessors":[{"name":"Node-Mesh_0_positions","componentType":5126,"count":1162,"min":[2.32749080657959,2.0617029666900635,-3.9519126415252686],"max":[2.657053232192993,2.4695608615875244,-3.8231723308563232],"type":"VEC3","bufferView":0,"byteOffset":0},{"name":"Node-Mesh_0_normals","componentType":5126,"count":1162,"min":[-0.8489282131195068,-0.8912807106971741,-0.9609821438789368],"max":[0.8489252924919128,0.8912884593009949,0.9609821438789368],"type":"VEC3","bufferView":1,"byteOffset":0},{"name":"Node-Mesh_0_indices","componentType":5123,"count":4353,"min":[0],"max":[1161],"type":"SCALAR","bufferView":2,"byteOffset":0}],"asset":{"generator":"obj2gltf","version":"2.0"},"buffers":[{"name":"input","byteLength":36596,"uri":"data:application/octet-stream;base64,"}],"bufferViews":[{"name":"bufferView_0","buffer":0,"byteLength":13944,"byteOffset":0,"byteStride":12,"target":34962},{"name":"bufferView_1","buffer":0,"byteLength":13944,"byteOffset":13944,"byteStride":12,"target":34962},{"name":"bufferView_3","buffer":0,"byteLength":8708,"byteOffset":27888,"target":34963}],"materials":[{"name":"diffuse_0_0_0_255","pbrMetallicRoughness":{"baseColorFactor":[0.5,0.5,0.5,1],"metallicFactor":0,"roughnessFactor":1},"emissiveFactor":[0,0,0],"alphaMode":"OPAQUE","doubleSided":false}],"meshes":[{"name":"Node-Mesh","primitives":[{"attributes":{"POSITION":0,"NORMAL":1},"indices":2,"material":0,"mode":4}]}],"nodes":[{"name":"Node","mesh":0}],"scene":0,"scenes":[{"nodes":[0]}]}
