{"accessors":[{"name":"Node-Mesh_0_positions","componentType":5126,"count":810,"min":[3.522357702255249,2.0643506050109863,-3.4593095779418945],"max":[3.760835647583008,2.3632967472076416,-3.28507661819458],"type":"VEC3","bufferView":0,"byteOffset":0},{"name":"Node-Mesh_0_normals","componentType":5126,"count":810,"min":[-0.8486189246177673,-0.8912349939346313,-0.8511489033699036],"max":[0.8483457565307617,0.8912063837051392,0.8511489033699036],"type":"VEC3","bufferView":1,"byteOffset":0},{"name":"Node-Mesh_0_indices","componentType":5123,"count":2910,"min":[0],"max":[809],"type":"SCALAR","bufferView":2,"byteOffset":0}],"asset":{"generator":"obj2gltf","version":"2.0"},"buffers":[{"name":"input","byteLength":25260,"uri":"data:application/octet-stream;base64,"}],"bufferViews":[{"name":"bufferView_0","buffer":0,"byteLength":9720,"byteOffset":0,"byteStride":12,"target":34962},{"name":"bufferView_1","buffer":0,"byteLength":9720,"byteOffset":9720,"byteStride":12,"target":34962},{"name":"bufferView_3","buffer":0,"byteLength":5820,"byteOffset":19440,"target":34963}],"materials":[{"name":"diffuse_0_0_0_255","pbrMetallicRoughness":{"baseColorFactor":[0.5,0.5,0.5,1],"metallicFactor":0,"roughnessFactor":1},"emissiveFactor":[0,0,0],"alphaMode":"OPAQUE","doubleSided":false}],"meshes":[{"name":"Node-Mesh","primitives":[{"attributes":{"POSITION":0,"NORMAL":1},"indices":2,"material":0,"mode":4}]}],"nodes":[{"name":"Node","mesh":0}],"scene":0,"scenes":[{"nodes":[0]}]}
