{"accessors":[{"name":"Node-Mesh_0_positions","componentType":5126,"count":897,"min":[-0.3321037292480469,2.0769784450531006,4.808832168579102],"max":[-0.07356097549200058,2.4709296226501465,4.92631721496582],"type":"VEC3","bufferView":0,"byteOffset":0},{"name":"Node-Mesh_0_normals","componentType":5126,"count":897,"min":[-0.986867368221283,-0.9153327345848083,-0.972382128238678],"max":[0.9876714944839478,0.9160215258598328,0.972382128238678],"type":"VEC3","bufferView":1,"byteOffset":0},{"name":"Node-Mesh_0_indices","componentType":5123,"count":3366,"min":[0],"max":[896],"type":"SCALAR","bufferView":2,"byteOffset":0}],"asset":{"generator":"obj2gltf","version":"2.0"},"buffers":[{"name":"input","byteLength":28260,"uri":"data:application/octet-stream;base64,"}],"bufferViews":[{"name":"bufferView_0","buffer":0,"byteLength":10764,"byteOffset":0,"byteStride":12,"target":34962},{"name":"bufferView_1","buffer":0,"byteLength":10764,"byteOffset":10764,"byteStride":12,"target":34962},{"name":"bufferView_3","buffer":0,"byteLength":6732,"byteOffset":21528,"target":34963}],"materials":[{"name":"diffuse_0_0_0_255","pbrMetallicRoughness":{"baseColorFactor":[0.5,0.5,0.5,1],"metallicFactor":0,"roughnessFactor":1},"emissiveFactor":[0,0,0],"alphaMode":"OPAQUE","doubleSided":false}],"meshes":[{"name":"Node-Mesh","primitives":[{"attributes":{"POSITION":0,"NORMAL":1},"indices":2,"material":0,"mode":4}]}],"nodes":[{"name":"Node","mesh":0}],"scene":0,"scenes":[{"nodes":[0]}]}
