{"accessors":[{"name":"Node-Mesh_0_positions","componentType":5126,"count":927,"min":[4.6310505867004395,2.035006284713745,-2.0285065174102783],"max":[4.696022033691406,2.4230849742889404,-1.9628040790557861],"type":"VEC3","bufferView":0,"byteOffset":0},{"name":"Node-Mesh_0_normals","componentType":5126,"count":927,"min":[-0.9575071930885315,-0.9128274321556091,-0.9130766987800598],"max":[0.9575071930885315,0.9126111268997192,0.9130814671516418],"type":"VEC3","bufferView":1,"byteOffset":0},{"name":"Node-Mesh_0_indices","componentType":5123,"count":3822,"min":[0],"max":[926],"type":"SCALAR","bufferView":2,"byteOffset":0}],"asset":{"generator":"obj2gltf","version":"2.0"},"buffers":[{"name":"input","byteLength":29892,"uri":"data:application/octet-stream;base64,"}],"bufferViews":[{"name":"bufferView_0","buffer":0,"byteLength":11124,"byteOffset":0,"byteStride":12,"target":34962},{"name":"bufferView_1","buffer":0,"byteLength":11124,"byteOffset":11124,"byteStride":12,"target":34962},{"name":"bufferView_3","buffer":0,"byteLength":7644,"byteOffset":22248,"target":34963}],"materials":[{"name":"diffuse_0_0_0_255","pbrMetallicRoughness":{"baseColorFactor":[0.5,0.5,0.5,1],"metallicFactor":0,"roughnessFactor":1},"emissiveFactor":[0,0,0],"alphaMode":"OPAQUE","doubleSided":false}],"meshes":[{"name":"Node-Mesh","primitives":[{"attributes":{"POSITION":0,"NORMAL":1},"indices":2,"material":0,"mode":4}]}],"nodes":[{"name":"Node","mesh":0}],"scene":0,"scenes":[{"nodes":[0]}]}
