{"accessors":[{"name":"Node-Mesh_0_positions","componentType":5126,"count":5579,"min":[-3.0343830585479736,2.0861072540283203,-3.2950823307037354],"max":[-2.8432257175445557,2.4223625659942627,-3.10715913772583],"type":"VEC3","bufferView":0,"byteOffset":0},{"name":"Node-Mesh_0_normals","componentType":5126,"count":5579,"min":[-0.9945555329322815,-0.9049320220947266,-0.9999983310699463],"max":[0.9945555329322815,0.9049320220947266,0.9999983310699463],"type":"VEC3","bufferView":1,"byteOffset":0},{"name":"Node-Mesh_0_indices","componentType":5123,"count":20178,"min":[0],"max":[5578],"type":"SCALAR","bufferView":2,"byteOffset":0}],"asset":{"generator":"obj2gltf","version":"2.0"},"buffers":[{"name":"input","byteLength":174252,"uri":"data:application/octet-stream;base64,"}],"bufferViews":[{"name":"bufferView_0","buffer":0,"byteLength":66948,"byteOffset":0,"byteStride":12,"target":34962},{"name":"bufferView_1","buffer":0,"byteLength":66948,"byteOffset":66948,"byteStride":12,"target":34962},{"name":"bufferView_3","buffer":0,"byteLength":40356,"byteOffset":133896,"target":34963}],"materials":[{"name":"diffuse_0_0_0_255","pbrMetallicRoughness":{"baseColorFactor":[0.5,0.5,0.5,1],"metallicFactor":0,"roughnessFactor":1},"emissiveFactor":[0,0,0],"alphaMode":"OPAQUE","doubleSided":false}],"meshes":[{"name":"Node-Mesh","primitives":[{"attributes":{"POSITION":0,"NORMAL":1},"indices":2,"material":0,"mode":4}]}],"nodes":[{"name":"Node","mesh":0}],"scene":0,"scenes":[{"nodes":[0]}]}
