{"accessors":[{"name":"Node-Mesh_0_positions","componentType":5126,"count":1169,"min":[-0.44247573614120483,2.0825464725494385,4.769626140594482],"max":[-0.3906145691871643,2.4709579944610596,4.846475601196289],"type":"VEC3","bufferView":0,"byteOffset":0},{"name":"Node-Mesh_0_normals","componentType":5126,"count":1169,"min":[-0.9853177070617676,-0.9159213304519653,-0.9378927946090698],"max":[0.9852725863456726,0.9151125550270081,0.9378927946090698],"type":"VEC3","bufferView":1,"byteOffset":0},{"name":"Node-Mesh_0_indices","componentType":5123,"count":5232,"min":[0],"max":[1168],"type":"SCALAR","bufferView":2,"byteOffset":0}],"asset":{"generator":"obj2gltf","version":"2.0"},"buffers":[{"name":"input","byteLength":38520,"uri":"data:application/octet-stream;base64,"}],"bufferViews":[{"name":"bufferView_0","buffer":0,"byteLength":14028,"byteOffset":0,"byteStride":12,"target":34962},{"name":"bufferView_1","buffer":0,"byteLength":14028,"byteOffset":14028,"byteStride":12,"target":34962},{"name":"bufferView_3","buffer":0,"byteLength":10464,"byteOffset":28056,"target":34963}],"materials":[{"name":"diffuse_0_0_0_255","pbrMetallicRoughness":{"baseColorFactor":[0.5,0.5,0.5,1],"metallicFactor":0,"roughnessFactor":1},"emissiveFactor":[0,0,0],"alphaMode":"OPAQUE","doubleSided":false}],"meshes":[{"name":"Node-Mesh","primitives":[{"attributes":{"POSITION":0,"NORMAL":1},"indices":2,"material":0,"mode":4}]}],"nodes":[{"name":"Node","mesh":0}],"scene":0,"scenes":[{"nodes":[0]}]}
