{"accessors":[{"name":"Node-Mesh_0_positions","componentType":5126,"count":933,"min":[3.9703853130340576,2.063960075378418,-3.1219258308410645],"max":[4.165942192077637,2.363224983215332,-2.9136877059936523],"type":"VEC3","bufferView":0,"byteOffset":0},{"name":"Node-Mesh_0_normals","componentType":5126,"count":933,"min":[-0.8486749529838562,-0.8912836909294128,-0.7296229004859924],"max":[0.848940372467041,0.8910945653915405,0.7296229004859924],"type":"VEC3","bufferView":1,"byteOffset":0},{"name":"Node-Mesh_0_indices","componentType":5123,"count":3267,"min":[0],"max":[932],"type":"SCALAR","bufferView":2,"byteOffset":0}],"asset":{"generator":"obj2gltf","version":"2.0"},"buffers":[{"name":"input","byteLength":28928,"uri":"data:application/octet-stream;base64,"}],"bufferViews":[{"name":"bufferView_0","buffer":0,"byteLength":11196,"byteOffset":0,"byteStride":12,"target":34962},{"name":"bufferView_1","buffer":0,"byteLength":11196,"byteOffset":11196,"byteStride":12,"target":34962},{"name":"bufferView_3","buffer":0,"byteLength":6536,"byteOffset":22392,"target":34963}],"materials":[{"name":"diffuse_0_0_0_255","pbrMetallicRoughness":{"baseColorFactor":[0.5,0.5,0.5,1],"metallicFactor":0,"roughnessFactor":1},"emissiveFactor":[0,0,0],"alphaMode":"OPAQUE","doubleSided":false}],"meshes":[{"name":"Node-Mesh","primitives":[{"attributes":{"POSITION":0,"NORMAL":1},"indices":2,"material":0,"mode":4}]}],"nodes":[{"name":"Node","mesh":0}],"scene":0,"scenes":[{"nodes":[0]}]}
