{"accessors":[{"name":"Node-Mesh_0_positions","componentType":5126,"count":2750,"min":[-3.435553550720215,2.090958833694458,-2.672085762023926],"max":[-3.355238437652588,2.519463300704956,-2.5930802822113037],"type":"VEC3","bufferView":0,"byteOffset":0},{"name":"Node-Mesh_0_normals","componentType":5126,"count":2750,"min":[-0.8374226093292236,-0.9047015905380249,-0.8026641607284546],"max":[0.8374226093292236,0.9047015905380249,0.8026641607284546],"type":"VEC3","bufferView":1,"byteOffset":0},{"name":"Node-Mesh_0_indices","componentType":5123,"count":11862,"min":[0],"max":[2749],"type":"SCALAR","bufferView":2,"byteOffset":0}],"asset":{"generator":"obj2gltf","version":"2.0"},"buffers":[{"name":"input","byteLength":89724,"uri":"data:application/octet-stream;base64,"}],"bufferViews":[{"name":"bufferView_0","buffer":0,"byteLength":33000,"byteOffset":0,"byteStride":12,"target":34962},{"name":"bufferView_1","buffer":0,"byteLength":33000,"byteOffset":33000,"byteStride":12,"target":34962},{"name":"bufferView_3","buffer":0,"byteLength":23724,"byteOffset":66000,"target":34963}],"materials":[{"name":"diffuse_0_0_0_255","pbrMetallicRoughness":{"baseColorFactor":[0.5,0.5,0.5,1],"metallicFactor":0,"roughnessFactor":1},"emissiveFactor":[0,0,0],"alphaMode":"OPAQUE","doubleSided":false}],"meshes":[{"name":"Node-Mesh","primitives":[{"attributes":{"POSITION":0,"NORMAL":1},"indices":2,"material":0,"mode":4}]}],"nodes":[{"name":"Node","mesh":0}],"scene":0,"scenes":[{"nodes":[0]}]}
