{"accessors":[{"name":"Node-Mesh_0_positions","componentType":5126,"count":4414,"min":[-3.59676456451416,2.0860395431518555,-2.5753376483917236],"max":[-3.4187119007110596,2.5182440280914307,-2.324120283126831],"type":"VEC3","bufferView":0,"byteOffset":0},{"name":"Node-Mesh_0_normals","componentType":5126,"count":4414,"min":[-0.9999964237213135,-0.9047683477401733,-0.9867597818374634],"max":[0.9999964237213135,0.9046726226806641,0.9867597818374634],"type":"VEC3","bufferView":1,"byteOffset":0},{"name":"Node-Mesh_0_indices","componentType":5123,"count":15687,"min":[0],"max":[4413],"type":"SCALAR","bufferView":2,"byteOffset":0}],"asset":{"generator":"obj2gltf","version":"2.0"},"buffers":[{"name":"input","byteLength":137312,"uri":"data:application/octet-stream;base64,"}],"bufferViews":[{"name":"bufferView_0","buffer":0,"byteLength":52968,"byteOffset":0,"byteStride":12,"target":34962},{"name":"bufferView_1","buffer":0,"byteLength":52968,"byteOffset":52968,"byteStride":12,"target":34962},{"name":"bufferView_3","buffer":0,"byteLength":31376,"byteOffset":105936,"target":34963}],"materials":[{"name":"diffuse_0_0_0_255","pbrMetallicRoughness":{"baseColorFactor":[0.5,0.5,0.5,1],"metallicFactor":0,"roughnessFactor":1},"emissiveFactor":[0,0,0],"alphaMode":"OPAQUE","doubleSided":false}],"meshes":[{"name":"Node-Mesh","primitives":[{"attributes":{"POSITION":0,"NORMAL":1},"indices":2,"material":0,"mode":4}]}],"nodes":[{"name":"Node","mesh":0}],"scene":0,"scenes":[{"nodes":[0]}]}
