{"accessors":[{"name":"Node-Mesh_0_positions","componentType":5126,"count":1181,"min":[3.767456293106079,2.0640509128570557,-3.2906997203826904],"max":[3.963367223739624,2.364017963409424,-3.11639142036438],"type":"VEC3","bufferView":0,"byteOffset":0},{"name":"Node-Mesh_0_normals","componentType":5126,"count":1181,"min":[-0.8489385843276978,-0.8912749290466309,-0.7956745624542236],"max":[0.8489400148391724,0.8912865519523621,0.7956745624542236],"type":"VEC3","bufferView":1,"byteOffset":0},{"name":"Node-Mesh_0_indices","componentType":5123,"count":4446,"min":[0],"max":[1180],"type":"SCALAR","bufferView":2,"byteOffset":0}],"asset":{"generator":"obj2gltf","version":"2.0"},"buffers":[{"name":"input","byteLength":37236,"uri":"data:application/octet-stream;base64,"}],"bufferViews":[{"name":"bufferView_0","buffer":0,"byteLength":14172,"byteOffset":0,"byteStride":12,"target":34962},{"name":"bufferView_1","buffer":0,"byteLength":14172,"byteOffset":14172,"byteStride":12,"target":34962},{"name":"bufferView_3","buffer":0,"byteLength":8892,"byteOffset":28344,"target":34963}],"materials":[{"name":"diffuse_0_0_0_255","pbrMetallicRoughness":{"baseColorFactor":[0.5,0.5,0.5,1],"metallicFactor":0,"roughnessFactor":1},"emissiveFactor":[0,0,0],"alphaMode":"OPAQUE","doubleSided":false}],"meshes":[{"name":"Node-Mesh","primitives":[{"attributes":{"POSITION":0,"NORMAL":1},"indices":2,"material":0,"mode":4}]}],"nodes":[{"name":"Node","mesh":0}],"scene":0,"scenes":[{"nodes":[0]}]}
