{"accessors":[{"name":"Node-Mesh_0_positions","componentType":5126,"count":681,"min":[-4.109575271606445,2.049445390701294,-1.0220861434936523],"max":[-4.02965784072876,2.44336199760437,-0.8718812465667725],"type":"VEC3","bufferView":0,"byteOffset":0},{"name":"Node-Mesh_0_normals","componentType":5126,"count":681,"min":[-0.982056736946106,-0.9066587686538696,-0.9923681616783142],"max":[0.982056736946106,0.9067459106445312,0.9911398887634277],"type":"VEC3","bufferView":1,"byteOffset":0},{"name":"Node-Mesh_0_indices","componentType":5123,"count":2580,"min":[0],"max":[680],"type":"SCALAR","bufferView":2,"byteOffset":0}],"asset":{"generator":"obj2gltf","version":"2.0"},"buffers":[{"name":"input","byteLength":21504,"uri":"data:application/octet-stream;base64,"}],"bufferViews":[{"name":"bufferView_0","buffer":0,"byteLength":8172,"byteOffset":0,"byteStride":12,"target":34962},{"name":"bufferView_1","buffer":0,"byteLength":8172,"byteOffset":8172,"byteStride":12,"target":34962},{"name":"bufferView_3","buffer":0,"byteLength":5160,"byteOffset":16344,"target":34963}],"materials":[{"name":"diffuse_0_0_0_255","pbrMetallicRoughness":{"baseColorFactor":[0.5,0.5,0.5,1],"metallicFactor":0,"roughnessFactor":1},"emissiveFactor":[0,0,0],"alphaMode":"OPAQUE","doubleSided":false}],"meshes":[{"name":"Node-Mesh","primitives":[{"attributes":{"POSITION":0,"NORMAL":1},"indices":2,"material":0,"mode":4}]}],"nodes":[{"name":"Node","mesh":0}],"scene":0,"scenes":[{"nodes":[0]}]}
