{"accessors":[{"name":"Node-Mesh_0_positions","componentType":5126,"count":777,"min":[2.0071918964385986,2.0710365772247314,4.470120906829834],"max":[2.06890606880188,2.46281099319458,4.54813289642334],"type":"VEC3","bufferView":0,"byteOffset":0},{"name":"Node-Mesh_0_normals","componentType":5126,"count":777,"min":[-0.9370953440666199,-0.8976424932479858,-0.8902824521064758],"max":[0.9370779395103455,0.8976013660430908,0.8902824521064758],"type":"VEC3","bufferView":1,"byteOffset":0},{"name":"Node-Mesh_0_indices","componentType":5123,"count":3468,"min":[0],"max":[776],"type":"SCALAR","bufferView":2,"byteOffset":0}],"asset":{"generator":"obj2gltf","version":"2.0"},"buffers":[{"name":"input","byteLength":25584,"uri":"data:application/octet-stream;base64,"}],"bufferViews":[{"name":"bufferView_0","buffer":0,"byteLength":9324,"byteOffset":0,"byteStride":12,"target":34962},{"name":"bufferView_1","buffer":0,"byteLength":9324,"byteOffset":9324,"byteStride":12,"target":34962},{"name":"bufferView_3","buffer":0,"byteLength":6936,"byteOffset":18648,"target":34963}],"materials":[{"name":"diffuse_0_0_0_255","pbrMetallicRoughness":{"baseColorFactor":[0.5,0.5,0.5,1],"metallicFactor":0,"roughnessFactor":1},"emissiveFactor":[0,0,0],"alphaMode":"OPAQUE","doubleSided":false}],"meshes":[{"name":"Node-Mesh","primitives":[{"attributes":{"POSITION":0,"NORMAL":1},"indices":2,"material":0,"mode":4}]}],"nodes":[{"name":"Node","mesh":0}],"scene":0,"scenes":[{"nodes":[0]}]}
