{"accessors":[{"name":"Node-Mesh_0_positions","componentType":5126,"count":2520,"min":[-2.7640931606292725,1.9839876890182495,-3.5347137451171875],"max":[-2.5186047554016113,2.4153523445129395,-3.353766918182373],"type":"VEC3","bufferView":0,"byteOffset":0},{"name":"Node-Mesh_0_normals","componentType":5126,"count":2520,"min":[-0.8423691391944885,-0.904938817024231,-0.9383149743080139],"max":[0.8423691391944885,0.9048231840133667,0.9383149743080139],"type":"VEC3","bufferView":1,"byteOffset":0},{"name":"Node-Mesh_0_indices","componentType":5123,"count":8154,"min":[0],"max":[2519],"type":"SCALAR","bufferView":2,"byteOffset":0}],"asset":{"generator":"obj2gltf","version":"2.0"},"buffers":[{"name":"input","byteLength":76788,"uri":"data:application/octet-stream;base64,"}],"bufferViews":[{"name":"bufferView_0","buffer":0,"byteLength":30240,"byteOffset":0,"byteStride":12,"target":34962},{"name":"bufferView_1","buffer":0,"byteLength":30240,"byteOffset":30240,"byteStride":12,"target":34962},{"name":"bufferView_3","buffer":0,"byteLength":16308,"byteOffset":60480,"target":34963}],"materials":[{"name":"diffuse_0_0_0_255","pbrMetallicRoughness":{"baseColorFactor":[0.5,0.5,0.5,1],"metallicFactor":0,"roughnessFactor":1},"emissiveFactor":[0,0,0],"alphaMode":"OPAQUE","doubleSided":false}],"meshes":[{"name":"Node-Mesh","primitives":[{"attributes":{"POSITION":0,"NORMAL":1},"indices":2,"material":0,"mode":4}]}],"nodes":[{"name":"Node","mesh":0}],"scene":0,"scenes":[{"nodes":[0]}]}
