{"accessors":[{"name":"Node-Mesh_0_positions","componentType":5126,"count":3371,"min":[-3.733168363571167,2.0921623706817627,-2.3071389198303223],"max":[-3.5893068313598633,2.421596050262451,-2.067192554473877],"type":"VEC3","bufferView":0,"byteOffset":0},{"name":"Node-Mesh_0_normals","componentType":5126,"count":3371,"min":[-0.9999722242355347,-0.9048507809638977,-0.9914596676826477],"max":[0.9999722242355347,0.9048507809638977,0.9914596676826477],"type":"VEC3","bufferView":1,"byteOffset":0},{"name":"Node-Mesh_0_indices","componentType":5123,"count":11691,"min":[0],"max":[3370],"type":"SCALAR","bufferView":2,"byteOffset":0}],"asset":{"generator":"obj2gltf","version":"2.0"},"buffers":[{"name":"input","byteLength":104288,"uri":"data:application/octet-stream;base64,"}],"bufferViews":[{"name":"bufferView_0","buffer":0,"byteLength":40452,"byteOffset":0,"byteStride":12,"target":34962},{"name":"bufferView_1","buffer":0,"byteLength":40452,"byteOffset":40452,"byteStride":12,"target":34962},{"name":"bufferView_3","buffer":0,"byteLength":23384,"byteOffset":80904,"target":34963}],"materials":[{"name":"diffuse_0_0_0_255","pbrMetallicRoughness":{"baseColorFactor":[0.5,0.5,0.5,1],"metallicFactor":0,"roughnessFactor":1},"emissiveFactor":[0,0,0],"alphaMode":"OPAQUE","doubleSided":false}],"meshes":[{"name":"Node-Mesh","primitives":[{"attributes":{"POSITION":0,"NORMAL":1},"indices":2,"material":0,"mode":4}]}],"nodes":[{"name":"Node","mesh":0}],"scene":0,"scenes":[{"nodes":[0]}]}
