{"accessors":[{"name":"Node-Mesh_0_positions","componentType":5126,"count":728,"min":[2.6793882846832275,2.0636324882507324,-3.8446459770202637],"max":[2.9334797859191895,2.3570597171783447,-3.724952459335327],"type":"VEC3","bufferView":0,"byteOffset":0},{"name":"Node-Mesh_0_normals","componentType":5126,"count":728,"min":[-0.8455503582954407,-0.8910349011421204,-0.9466367959976196],"max":[0.8205735683441162,0.8912888169288635,0.9466367959976196],"type":"VEC3","bufferView":1,"byteOffset":0},{"name":"Node-Mesh_0_indices","componentType":5123,"count":2619,"min":[0],"max":[727],"type":"SCALAR","bufferView":2,"byteOffset":0}],"asset":{"generator":"obj2gltf","version":"2.0"},"buffers":[{"name":"input","byteLength":22712,"uri":"data:application/octet-stream;base64,"}],"bufferViews":[{"name":"bufferView_0","buffer":0,"byteLength":8736,"byteOffset":0,"byteStride":12,"target":34962},{"name":"bufferView_1","buffer":0,"byteLength":8736,"byteOffset":8736,"byteStride":12,"target":34962},{"name":"bufferView_3","buffer":0,"byteLength":5240,"byteOffset":17472,"target":34963}],"materials":[{"name":"diffuse_0_0_0_255","pbrMetallicRoughness":{"baseColorFactor":[0.5,0.5,0.5,1],"metallicFactor":0,"roughnessFactor":1},"emissiveFactor":[0,0,0],"alphaMode":"OPAQUE","doubleSided":false}],"meshes":[{"name":"Node-Mesh","primitives":[{"attributes":{"POSITION":0,"NORMAL":1},"indices":2,"material":0,"mode":4}]}],"nodes":[{"name":"Node","mesh":0}],"scene":0,"scenes":[{"nodes":[0]}]}
