{"accessors":[{"name":"Node-Mesh_0_positions","componentType":5126,"count":2183,"min":[-2.531806230545044,2.092158794403076,-3.618887424468994],"max":[-2.4491143226623535,2.2032995223999023,-3.559443473815918],"type":"VEC3","bufferView":0,"byteOffset":0},{"name":"Node-Mesh_0_normals","componentType":5126,"count":2183,"min":[-0.6103538274765015,-0.8965055346488953,-0.8238312005996704],"max":[0.6103538274765015,0.8965055346488953,0.8238312005996704],"type":"VEC3","bufferView":1,"byteOffset":0},{"name":"Node-Mesh_0_indices","componentType":5123,"count":8952,"min":[0],"max":[2182],"type":"SCALAR","bufferView":2,"byteOffset":0}],"asset":{"generator":"obj2gltf","version":"2.0"},"buffers":[{"name":"input","byteLength":70296,"uri":"data:application/octet-stream;base64,"}],"bufferViews":[{"name":"bufferView_0","buffer":0,"byteLength":26196,"byteOffset":0,"byteStride":12,"target":34962},{"name":"bufferView_1","buffer":0,"byteLength":26196,"byteOffset":26196,"byteStride":12,"target":34962},{"name":"bufferView_3","buffer":0,"byteLength":17904,"byteOffset":52392,"target":34963}],"materials":[{"name":"diffuse_0_0_0_255","pbrMetallicRoughness":{"baseColorFactor":[0.5,0.5,0.5,1],"metallicFactor":0,"roughnessFactor":1},"emissiveFactor":[0,0,0],"alphaMode":"OPAQUE","doubleSided":false}],"meshes":[{"name":"Node-Mesh","primitives":[{"attributes":{"POSITION":0,"NORMAL":1},"indices":2,"material":0,"mode":4}]}],"nodes":[{"name":"Node","mesh":0}],"scene":0,"scenes":[{"nodes":[0]}]}
