{"accessors":[{"name":"Node-Mesh_0_positions","componentType":5126,"count":1142,"min":[2.5067384243011475,2.071657419204712,4.178897857666016],"max":[2.562359094619751,2.4616165161132812,4.250888347625732],"type":"VEC3","bufferView":0,"byteOffset":0},{"name":"Node-Mesh_0_normals","componentType":5126,"count":1142,"min":[-0.9374783635139465,-0.897132396697998,-0.8378171920776367],"max":[0.937473714351654,0.8968928456306458,0.8378171920776367],"type":"VEC3","bufferView":1,"byteOffset":0},{"name":"Node-Mesh_0_indices","componentType":5123,"count":5082,"min":[0],"max":[1141],"type":"SCALAR","bufferView":2,"byteOffset":0}],"asset":{"generator":"obj2gltf","version":"2.0"},"buffers":[{"name":"input","byteLength":37572,"uri":"data:application/octet-stream;base64,"}],"bufferViews":[{"name":"bufferView_0","buffer":0,"byteLength":13704,"byteOffset":0,"byteStride":12,"target":34962},{"name":"bufferView_1","buffer":0,"byteLength":13704,"byteOffset":13704,"byteStride":12,"target":34962},{"name":"bufferView_3","buffer":0,"byteLength":10164,"byteOffset":27408,"target":34963}],"materials":[{"name":"diffuse_0_0_0_255","pbrMetallicRoughness":{"baseColorFactor":[0.5,0.5,0.5,1],"metallicFactor":0,"roughnessFactor":1},"emissiveFactor":[0,0,0],"alphaMode":"OPAQUE","doubleSided":false}],"meshes":[{"name":"Node-Mesh","primitives":[{"attributes":{"POSITION":0,"NORMAL":1},"indices":2,"material":0,"mode":4}]}],"nodes":[{"name":"Node","mesh":0}],"scene":0,"scenes":[{"nodes":[0]}]}
