{"accessors":[{"name":"Node-Mesh_0_positions","componentType":5126,"count":806,"min":[2.096163749694824,2.066255807876587,4.332110404968262],"max":[2.3244211673736572,2.3654279708862305,4.4888529777526855],"type":"VEC3","bufferView":0,"byteOffset":0},{"name":"Node-Mesh_0_normals","componentType":5126,"count":806,"min":[-0.948887288570404,-0.8976421356201172,-0.8795816898345947],"max":[0.9493252635002136,0.8976252675056458,0.8795816898345947],"type":"VEC3","bufferView":1,"byteOffset":0},{"name":"Node-Mesh_0_indices","componentType":5123,"count":2889,"min":[0],"max":[805],"type":"SCALAR","bufferView":2,"byteOffset":0}],"asset":{"generator":"obj2gltf","version":"2.0"},"buffers":[{"name":"input","byteLength":25124,"uri":"data:application/octet-stream;base64,"}],"bufferViews":[{"name":"bufferView_0","buffer":0,"byteLength":9672,"byteOffset":0,"byteStride":12,"target":34962},{"name":"bufferView_1","buffer":0,"byteLength":9672,"byteOffset":9672,"byteStride":12,"target":34962},{"name":"bufferView_3","buffer":0,"byteLength":5780,"byteOffset":19344,"target":34963}],"materials":[{"name":"diffuse_0_0_0_255","pbrMetallicRoughness":{"baseColorFactor":[0.5,0.5,0.5,1],"metallicFactor":0,"roughnessFactor":1},"emissiveFactor":[0,0,0],"alphaMode":"OPAQUE","doubleSided":false}],"meshes":[{"name":"Node-Mesh","primitives":[{"attributes":{"POSITION":0,"NORMAL":1},"indices":2,"material":0,"mode":4}]}],"nodes":[{"name":"Node","mesh":0}],"scene":0,"scenes":[{"nodes":[0]}]}
