{"accessors":[{"name":"Node-Mesh_0_positions","componentType":5126,"count":836,"min":[4.726833343505859,2.036456346511841,0.4091910421848297],"max":[4.812883377075195,2.426339864730835,0.4615594744682312],"type":"VEC3","bufferView":0,"byteOffset":0},{"name":"Node-Mesh_0_normals","componentType":5126,"count":836,"min":[-0.9827422499656677,-0.8904917240142822,-0.9939079880714417],"max":[0.9827422499656677,0.8904135823249817,0.9939091205596924],"type":"VEC3","bufferView":1,"byteOffset":0},{"name":"Node-Mesh_0_indices","componentType":5123,"count":3276,"min":[0],"max":[835],"type":"SCALAR","bufferView":2,"byteOffset":0}],"asset":{"generator":"obj2gltf","version":"2.0"},"buffers":[{"name":"input","byteLength":26616,"uri":"data:application/octet-stream;base64,"}],"bufferViews":[{"name":"bufferView_0","buffer":0,"byteLength":10032,"byteOffset":0,"byteStride":12,"target":34962},{"name":"bufferView_1","buffer":0,"byteLength":10032,"byteOffset":10032,"byteStride":12,"target":34962},{"name":"bufferView_3","buffer":0,"byteLength":6552,"byteOffset":20064,"target":34963}],"materials":[{"name":"diffuse_0_0_0_255","pbrMetallicRoughness":{"baseColorFactor":[0.5,0.5,0.5,1],"metallicFactor":0,"roughnessFactor":1},"emissiveFactor":[0,0,0],"alphaMode":"OPAQUE","doubleSided":false}],"meshes":[{"name":"Node-Mesh","primitives":[{"attributes":{"POSITION":0,"NORMAL":1},"indices":2,"material":0,"mode":4}]}],"nodes":[{"name":"Node","mesh":0}],"scene":0,"scenes":[{"nodes":[0]}]}
