{"accessors":[{"name":"Node-Mesh_0_positions","componentType":5126,"count":1238,"min":[-1.0152273178100586,1.973713994026184,4.586726665496826],"max":[-0.7610374689102173,2.3749496936798096,4.6658148765563965],"type":"VEC3","bufferView":0,"byteOffset":0},{"name":"Node-Mesh_0_normals","componentType":5126,"count":1238,"min":[-0.9871455430984497,-0.9158965349197388,-0.9987114071846008],"max":[0.9877247214317322,0.9161146283149719,0.9987114071846008],"type":"VEC3","bufferView":1,"byteOffset":0},{"name":"Node-Mesh_0_indices","componentType":5123,"count":4602,"min":[0],"max":[1237],"type":"SCALAR","bufferView":2,"byteOffset":0}],"asset":{"generator":"obj2gltf","version":"2.0"},"buffers":[{"name":"input","byteLength":38916,"uri":"data:application/octet-stream;base64,"}],"bufferViews":[{"name":"bufferView_0","buffer":0,"byteLength":14856,"byteOffset":0,"byteStride":12,"target":34962},{"name":"bufferView_1","buffer":0,"byteLength":14856,"byteOffset":14856,"byteStride":12,"target":34962},{"name":"bufferView_3","buffer":0,"byteLength":9204,"byteOffset":29712,"target":34963}],"materials":[{"name":"diffuse_0_0_0_255","pbrMetallicRoughness":{"baseColorFactor":[0.5,0.5,0.5,1],"metallicFactor":0,"roughnessFactor":1},"emissiveFactor":[0,0,0],"alphaMode":"OPAQUE","doubleSided":false}],"meshes":[{"name":"Node-Mesh","primitives":[{"attributes":{"POSITION":0,"NORMAL":1},"indices":2,"material":0,"mode":4}]}],"nodes":[{"name":"Node","mesh":0}],"scene":0,"scenes":[{"nodes":[0]}]}
