{"accessors":[{"name":"Node-Mesh_0_positions","componentType":5126,"count":868,"min":[3.2597951889038086,1.9672033786773682,-3.609640121459961],"max":[3.5105817317962646,2.363626003265381,-3.451608180999756],"type":"VEC3","bufferView":0,"byteOffset":0},{"name":"Node-Mesh_0_normals","componentType":5126,"count":868,"min":[-0.8467651605606079,-0.8906676769256592,-0.8981072902679443],"max":[0.848320722579956,0.890180766582489,0.8981072902679443],"type":"VEC3","bufferView":1,"byteOffset":0},{"name":"Node-Mesh_0_indices","componentType":5123,"count":3183,"min":[0],"max":[867],"type":"SCALAR","bufferView":2,"byteOffset":0}],"asset":{"generator":"obj2gltf","version":"2.0"},"buffers":[{"name":"input","byteLength":27200,"uri":"data:application/octet-stream;base64,"}],"bufferViews":[{"name":"bufferView_0","buffer":0,"byteLength":10416,"byteOffset":0,"byteStride":12,"target":34962},{"name":"bufferView_1","buffer":0,"byteLength":10416,"byteOffset":10416,"byteStride":12,"target":34962},{"name":"bufferView_3","buffer":0,"byteLength":6368,"byteOffset":20832,"target":34963}],"materials":[{"name":"diffuse_0_0_0_255","pbrMetallicRoughness":{"baseColorFactor":[0.5,0.5,0.5,1],"metallicFactor":0,"roughnessFactor":1},"emissiveFactor":[0,0,0],"alphaMode":"OPAQUE","doubleSided":false}],"meshes":[{"name":"Node-Mesh","primitives":[{"attributes":{"POSITION":0,"NORMAL":1},"indices":2,"material":0,"mode":4}]}],"nodes":[{"name":"Node","mesh":0}],"scene":0,"scenes":[{"nodes":[0]}]}
