{"accessors":[{"name":"Node-Mesh_0_positions","componentType":5126,"count":795,"min":[-3.876405715942383,2.083547353744507,1.9257091283798218],"max":[-3.734346628189087,2.3807532787323,2.1855101585388184],"type":"VEC3","bufferView":0,"byteOffset":0},{"name":"Node-Mesh_0_normals","componentType":5126,"count":795,"min":[-0.9234219193458557,-0.9135448932647705,-0.9411786794662476],"max":[0.9234219193458557,0.9135421514511108,0.9411221146583557],"type":"VEC3","bufferView":1,"byteOffset":0},{"name":"Node-Mesh_0_indices","componentType":5123,"count":2904,"min":[0],"max":[794],"type":"SCALAR","bufferView":2,"byteOffset":0}],"asset":{"generator":"obj2gltf","version":"2.0"},"buffers":[{"name":"input","byteLength":24888,"uri":"data:application/octet-stream;base64,"}],"bufferViews":[{"name":"bufferView_0","buffer":0,"byteLength":9540,"byteOffset":0,"byteStride":12,"target":34962},{"name":"bufferView_1","buffer":0,"byteLength":9540,"byteOffset":9540,"byteStride":12,"target":34962},{"name":"bufferView_3","buffer":0,"byteLength":5808,"byteOffset":19080,"target":34963}],"materials":[{"name":"diffuse_0_0_0_255","pbrMetallicRoughness":{"baseColorFactor":[0.5,0.5,0.5,1],"metallicFactor":0,"roughnessFactor":1},"emissiveFactor":[0,0,0],"alphaMode":"OPAQUE","doubleSided":false}],"meshes":[{"name":"Node-Mesh","primitives":[{"attributes":{"POSITION":0,"NORMAL":1},"indices":2,"material":0,"mode":4}]}],"nodes":[{"name":"Node","mesh":0}],"scene":0,"scenes":[{"nodes":[0]}]}
