{"accessors":[{"name":"Node-Mesh_0_positions","componentType":5126,"count":1108,"min":[4.700404167175293,2.0303871631622314,0.5079475045204163],"max":[4.792513370513916,2.3304619789123535,0.7384288907051086],"type":"VEC3","bufferView":0,"byteOffset":0},{"name":"Node-Mesh_0_normals","componentType":5126,"count":1108,"min":[-0.9798802137374878,-0.8905518054962158,-0.9945513606071472],"max":[0.9798802137374878,0.8905016779899597,0.9947716593742371],"type":"VEC3","bufferView":1,"byteOffset":0},{"name":"Node-Mesh_0_indices","componentType":5123,"count":4128,"min":[0],"max":[1107],"type":"SCALAR","bufferView":2,"byteOffset":0}],"asset":{"generator":"obj2gltf","version":"2.0"},"buffers":[{"name":"input","byteLength":34848,"uri":"data:application/octet-stream;base64,"}],"bufferViews":[{"name":"bufferView_0","buffer":0,"byteLength":13296,"byteOffset":0,"byteStride":12,"target":34962},{"name":"bufferView_1","buffer":0,"byteLength":13296,"byteOffset":13296,"byteStride":12,"target":34962},{"name":"bufferView_3","buffer":0,"byteLength":8256,"byteOffset":26592,"target":34963}],"materials":[{"name":"diffuse_0_0_0_255","pbrMetallicRoughness":{"baseColorFactor":[0.5,0.5,0.5,1],"metallicFactor":0,"roughnessFactor":1},"emissiveFactor":[0,0,0],"alphaMode":"OPAQUE","doubleSided":false}],"meshes":[{"name":"Node-Mesh","primitives":[{"attributes":{"POSITION":0,"NORMAL":1},"indices":2,"material":0,"mode":4}]}],"nodes":[{"name":"Node","mesh":0}],"scene":0,"scenes":[{"nodes":[0]}]}
