{"accessors":[{"name":"Node-Mesh_0_positions","componentType":5126,"count":5505,"min":[-3.2065248489379883,2.0861222743988037,-3.108273506164551],"max":[-3.028571605682373,2.4223570823669434,-2.91056489944458],"type":"VEC3","bufferView":0,"byteOffset":0},{"name":"Node-Mesh_0_normals","componentType":5126,"count":5505,"min":[-0.9974648356437683,-0.9049332737922668,-0.9997468590736389],"max":[0.9974648356437683,0.9049332737922668,0.9997468590736389],"type":"VEC3","bufferView":1,"byteOffset":0},{"name":"Node-Mesh_0_indices","componentType":5123,"count":19884,"min":[0],"max":[5504],"type":"SCALAR","bufferView":2,"byteOffset":0}],"asset":{"generator":"obj2gltf","version":"2.0"},"buffers":[{"name":"input","byteLength":171888,"uri":"data:application/octet-stream;base64,"}],"bufferViews":[{"name":"bufferView_0","buffer":0,"byteLength":66060,"byteOffset":0,"byteStride":12,"target":34962},{"name":"bufferView_1","buffer":0,"byteLength":66060,"byteOffset":66060,"byteStride":12,"target":34962},{"name":"bufferView_3","buffer":0,"byteLength":39768,"byteOffset":132120,"target":34963}],"materials":[{"name":"diffuse_0_0_0_255","pbrMetallicRoughness":{"baseColorFactor":[0.5,0.5,0.5,1],"metallicFactor":0,"roughnessFactor":1},"emissiveFactor":[0,0,0],"alphaMode":"OPAQUE","doubleSided":false}],"meshes":[{"name":"Node-Mesh","primitives":[{"attributes":{"POSITION":0,"NORMAL":1},"indices":2,"material":0,"mode":4}]}],"nodes":[{"name":"Node","mesh":0}],"scene":0,"scenes":[{"nodes":[0]}]}
