{"accessors":[{"name":"Node-Mesh_0_positions","componentType":5126,"count":987,"min":[0.23829855024814606,2.076920747756958,4.91694974899292],"max":[0.4951512813568115,2.3742735385894775,4.988363742828369],"type":"VEC3","bufferView":0,"byteOffset":0},{"name":"Node-Mesh_0_normals","componentType":5126,"count":987,"min":[-0.9877256155014038,-0.9160574674606323,-0.9914172291755676],"max":[0.9876480102539062,0.9160868525505066,0.9914172291755676],"type":"VEC3","bufferView":1,"byteOffset":0},{"name":"Node-Mesh_0_indices","componentType":5123,"count":3552,"min":[0],"max":[986],"type":"SCALAR","bufferView":2,"byteOffset":0}],"asset":{"generator":"obj2gltf","version":"2.0"},"buffers":[{"name":"input","byteLength":30792,"uri":"data:application/octet-stream;base64,"}],"bufferViews":[{"name":"bufferView_0","buffer":0,"byteLength":11844,"byteOffset":0,"byteStride":12,"target":34962},{"name":"bufferView_1","buffer":0,"byteLength":11844,"byteOffset":11844,"byteStride":12,"target":34962},{"name":"bufferView_3","buffer":0,"byteLength":7104,"byteOffset":23688,"target":34963}],"materials":[{"name":"diffuse_0_0_0_255","pbrMetallicRoughness":{"baseColorFactor":[0.5,0.5,0.5,1],"metallicFactor":0,"roughnessFactor":1},"emissiveFactor":[0,0,0],"alphaMode":"OPAQUE","doubleSided":false}],"meshes":[{"name":"Node-Mesh","primitives":[{"attributes":{"POSITION":0,"NORMAL":1},"indices":2,"material":0,"mode":4}]}],"nodes":[{"name":"Node","mesh":0}],"scene":0,"scenes":[{"nodes":[0]}]}
