# Rhino

mtllib rhino-test.mtl
usemtl diffuse_0_0_0_255
v -24.456766128540039 0.19058451056480408 24.359970092773438
v -24.456766128540039 22.372772216796875 24.359970092773438
v 25.266277313232422 0.19058451056480408 24.359970092773438
v 25.266277313232422 22.372772216796875 24.359970092773438
v 0.40475541353225708 0.19058451056480408 24.359970092773438
v 0.40475541353225708 22.372772216796875 24.359970092773438
v 25.266277313232422 0.19058451056480408 24.359970092773438
v 25.266277313232422 22.372772216796875 24.359970092773438
v 25.266277313232422 0.19058451056480408 -25.535585403442383
v 25.266277313232422 22.372772216796875 -25.535585403442383
v 25.266277313232422 0.19058451056480408 -0.58780759572982788
v 25.266277313232422 22.372772216796875 -0.58780759572982788
v 25.266277313232422 0.19058451056480408 -25.535585403442383
v 25.266277313232422 22.372772216796875 -25.535585403442383
v -24.456766128540039 0.19058451056480408 -25.535585403442383
v -24.456766128540039 22.372772216796875 -25.535585403442383
v 0.40475541353225708 0.19058451056480408 -25.535585403442383
v 0.40475541353225708 22.372772216796875 -25.535585403442383
v -24.456766128540039 0.19058451056480408 -25.535585403442383
v -24.456766128540039 22.372772216796875 -25.535585403442383
v -24.456766128540039 0.19058451056480408 24.359970092773438
v -24.456766128540039 22.372772216796875 24.359970092773438
v -24.456766128540039 0.19058451056480408 -0.58780759572982788
v -24.456766128540039 22.372772216796875 -0.58780759572982788
v -24.456766128540039 0.19058451056480408 24.359970092773438
v -24.456766128540039 0.19058451056480408 -25.535585403442383
v 25.266277313232422 0.19058451056480408 24.359970092773438
v 25.266277313232422 0.19058451056480408 -25.535585403442383
v 0.40475541353225708 0.19058451056480408 24.359970092773438
v 25.266277313232422 0.19058451056480408 -0.58780759572982788
v 0.40475541353225708 0.19058451056480408 -25.535585403442383
v -24.456766128540039 0.19058451056480408 -0.58780759572982788
v -24.456766128540039 22.372772216796875 24.359970092773438
v -24.456766128540039 22.372772216796875 -25.535585403442383
v 25.266277313232422 22.372772216796875 24.359970092773438
v 25.266277313232422 22.372772216796875 -25.535585403442383
v 0.40475541353225708 22.372772216796875 24.359970092773438
v 25.266277313232422 22.372772216796875 -0.58780759572982788
v 0.40475541353225708 22.372772216796875 -25.535585403442383
v -24.456766128540039 22.372772216796875 -0.58780759572982788
vt 0 0.24913562834262848
vt 0 0.47142183780670166
vt 0.49827125668525696 0.24913562834262848
vt 0.49827125668525696 0.47142183780670166
vt 0.24913562834262848 0.24913562834262848
vt 0.24913562834262848 0.47142183780670166
vt 0 0.74740689992904663
vt 0 0.96969312429428101
vt 0.49853515625 0.74740689992904663
vt 0.49853515625 0.96969312429428101
vt 0.249267578125 0.74740689992904663
vt 0.249267578125 0.96969312429428101
vt 0 0
vt 0 0.22228620946407318
vt 0.49827125668525696 0
vt 0.49827125668525696 0.22228620946407318
vt 0.24913562834262848 0
vt 0.24913562834262848 0.22228620946407318
vt 0 0.49827125668525696
vt 0 0.72055745124816895
vt 0.49853515625 0.49827125668525696
vt 0.49853515625 0.72055745124816895
vt 0.249267578125 0.49827125668525696
vt 0.249267578125 0.72055745124816895
vt 0.99853515625 0.49827125668525696
vt 0.5 0.49827125668525696
vt 0.99853515625 0.99507766962051392
vt 0.5 0.99507766962051392
vt 0.99853515625 0.74667447805404663
vt 0.749267578125 0.99507766962051392
vt 0.5 0.74667447805404663
vt 0.749267578125 0.49827125668525696
vt 0.99853515625 0
vt 0.5 0
vt 0.99853515625 0.49680641293525696
vt 0.5 0.49680641293525696
vt 0.99853515625 0.24840320646762848
vt 0.749267578125 0.49680641293525696
vt 0.5 0.24840320646762848
vt 0.749267578125 0
vn 0 0 1
vn 0 0 1
vn 0 0 1
vn 0 0 1
vn 0 0 1
vn 0 0 1
vn 1 0 0
vn 1 0 0
vn 1 0 0
vn 1 0 0
vn 1 0 0
vn 1 0 0
vn 0 0 -1
vn 0 0 -1
vn 0 0 -1
vn 0 0 -1
vn 0 0 -1
vn 0 0 -1
vn -1 0 0
vn -1 0 0
vn -1 0 0
vn -1 0 0
vn -1 0 0
vn -1 0 0
vn 0 -1 0
vn 0 -1 0
vn 0 -1 0
vn 0 -1 0
vn 0 -1 0
vn 0 -1 0
vn 0 -1 0
vn 0 -1 0
vn 0 1 0
vn 0 1 0
vn 0 1 0
vn 0 1 0
vn 0 1 0
vn 0 1 0
vn 0 1 0
vn 0 1 0
f 2/2/2 1/1/1 5/5/5 3/3/3 4/4/4 6/6/6
f 8/8/8 7/7/7 11/11/11 9/9/9 10/10/10 12/12/12
f 14/14/14 13/13/13 17/17/17 15/15/15 16/16/16 18/18/18
f 20/20/20 19/19/19 23/23/23 21/21/21 22/22/22 24/24/24
f 29/29/29 25/25/25 32/32/32 26/26/26 31/31/31 28/28/28 30/30/30 27/27/27
f 40/40/40 33/33/33 37/37/37 35/35/35 38/38/38 36/36/36 39/39/39 34/34/34
usemtl diffuse_0_0_0_255
v -24.784427642822266 22.451824188232422 -25.560579299926758
v -24.620567321777344 22.451824188232422 -0.55365395545959473
v -24.456705093383789 22.451824188232422 24.453271865844727
v 0.19550709426403046 44.822052001953125 -0.056304562836885452
v 0.19550709426403046 44.822052001953125 -0.056304562836885452
v -12.130599021911621 33.636936187744141 12.198483467102051
v -12.294460296630859 33.636936187744141 -12.808442115783691
v -24.456705093383789 22.451824188232422 24.453271865844727
v 25.269872665405273 22.451824188232422 24.467975616455078
v -12.130599021911621 33.636936187744141 12.198483467102051
v 0.19550709426403046 44.822052001953125 -0.056304562836885452
v 0.19550709426403046 44.822052001953125 -0.056304562836885452
v 8.5536289215087891 37.365310668945313 8.1184549331665039
v 16.911750793457031 29.908567428588867 16.293214797973633
v 25.269872665405273 22.451824188232422 24.467975616455078
v 25.247316360473633 22.451824188232422 -0.54371392726898193
v 25.224760055541992 22.451824188232422 -25.555402755737305
v 0.19550709426403046 44.822052001953125 -0.056304562836885452
v 0.19550709426403046 44.822052001953125 -0.056304562836885452
v 0.19550709426403046 44.822052001953125 -0.056304562836885452
v 16.911750793457031 29.908567428588867 16.293214797973633
v 8.5536289215087891 37.365310668945313 8.1184549331665039
v 8.5385913848876953 37.365310668945313 -8.5560035705566406
v 16.881675720214844 29.908567428588867 -17.055704116821289
v 25.224760055541992 22.451824188232422 -25.555402755737305
v -24.784427642822266 22.451824188232422 -25.560579299926758
v 0.19550709426403046 44.822052001953125 -0.056304562836885452
v 0.19550709426403046 44.822052001953125 -0.056304562836885452
v 16.881675720214844 29.908567428588867 -17.055704116821289
v 8.5385913848876953 37.365310668945313 -8.5560035705566406
v -12.294460296630859 33.636936187744141 -12.808442115783691
vt 0.49849280714988708 0.418731689453125
vt 0.24924640357494354 0.418731689453125
vt 0 0.418731689453125
vt 0.49849280714988708 0.83986496925354004
vt 0 0.83986496925354004
vt 0 0.62929832935333252
vt 0.49849280714988708 0.62929832935333252
vt 0.49707531929016113 0
vt 0 0
vt 0.49707531929016113 0.20792219042778015
vt 0.49707531929016113 0.4158443808555603
vt 0 0.4158443808555603
vt 0 0.27722960710525513
vt 0 0.13861480355262756
vt 0.99853515625 0.42139449715614319
vt 0.74924641847610474 0.42139449715614319
vt 0.49995765089988708 0.42139449715614319
vt 0.99853515625 0.84132415056228638
vt 0.74924641847610474 0.84132415056228638
vt 0.49995765089988708 0.84132415056228638
vt 0.99853515625 0.5613710880279541
vt 0.99853515625 0.70134764909744263
vt 0.49995765089988708 0.70134764909744263
vt 0.49995765089988708 0.5613710880279541
vt 0.99853515625 0
vt 0.49995765089988708 0
vt 0.99853515625 0.41992965340614319
vt 0.49995765089988708 0.41992965340614319
vt 0.99853515625 0.13997656106948853
vt 0.99853515625 0.27995312213897705
vt 0.49995765089988708 0.20996482670307159
vn -0.66959792375564575 0.74271082878112793 0.004387617576867342
vn -0.66959792375564575 0.74271082878112793 0.004387617576867342
vn -0.66959792375564575 0.74271082878112793 0.004387617576867342
vn -0.66959792375564575 0.74271082878112793 0.004387617576867342
vn -0.66959792375564575 0.74271082878112793 0.004387617576867342
vn -0.66959792375564575 0.74271082878112793 0.004387617576867342
vn -0.66959792375564575 0.74271082878112793 0.004387617576867342
vn -0.00019929838890675455 0.73870652914047241 0.67402714490890503
vn -0.00019929838890675455 0.73870652914047241 0.67402714490890503
vn -0.00019929838890675455 0.73870652914047241 0.67402714490890503
vn -0.00019929838890675455 0.73870652914047241 0.67402714490890503
vn -0.00019929838890675455 0.73870652914047241 0.67402714490890503
vn -0.00019929838890675455 0.73870652914047241 0.67402714490890503
vn -0.00019929838890675455 0.73870652914047241 0.67402714490890503
vn 0.66605120897293091 0.74590575695037842 -0.0006006518960930407
vn 0.66605120897293091 0.74590575695037842 -0.0006006518960930407
vn 0.66605120897293091 0.74590575695037842 -0.0006006518960930407
vn 0.66605120897293091 0.74590575695037842 -0.0006006518960930407
vn 0.66605120897293091 0.74590575695037842 -0.0006006518960930407
vn 0.66605120897293091 0.74590575695037842 -0.0006006518960930407
vn 0.66605120897293091 0.74590575695037842 -0.0006006518960930407
vn 0.66605120897293091 0.74590575695037842 -0.0006006518960930407
vn 0.66605120897293091 0.74590575695037842 -0.0006006518960930407
vn 0.66605120897293091 0.74590575695037842 -0.0006006518960930407
vn 6.826384924352169E-05 0.75175434350967407 -0.659443199634552
vn 6.826384924352169E-05 0.75175434350967407 -0.659443199634552
vn 6.826384924352169E-05 0.75175434350967407 -0.659443199634552
vn 6.826384924352169E-05 0.75175434350967407 -0.659443199634552
vn 6.826384924352169E-05 0.75175434350967407 -0.659443199634552
vn 6.826384924352169E-05 0.75175434350967407 -0.659443199634552
vn 6.826384924352169E-05 0.75175434350967407 -0.659443199634552
f 47/47/47 41/41/41 42/42/42 44/44/44
f 42/42/42 43/43/43 46/46/46 45/45/45
f 49/49/49 54/54/54 53/53/53 52/52/52 50/50/50 48/48/48
f 61/61/61 55/55/55 56/56/56 57/57/57 64/64/64 63/63/63 59/59/59 62/62/62
f 65/65/65 66/66/66 71/71/71 68/68/68 70/70/70 69/69/69
usemtl diffuse_0_0_0_255
v -24.456706012946334 22.560812281225356 -25.657808060229996
v 25.26987250278669 22.560812281225356 -25.672511365527349
v 25.224760904238366 22.560812281225356 24.350866841435288
v -24.784427526458003 22.560812281225356 24.356043662815676
cstype bspline
deg 1
curv 0 200.09421491107003 72 73 74 75 72
parm u 0 0 50.300289498473205 100.3250010776199 150.34971265676657 200.09421491107003 200.09421491107003
end
