{"accessors":[{"name":"Node-Mesh_0_positions","componentType":5126,"count":2738,"min":[7.037535190582275,12.645758628845215,-25.946521759033203],"max":[9.68529224395752,15.260807037353516,-24.604907989501953],"type":"VEC3","bufferView":0,"byteOffset":0},{"name":"Node-Mesh_0_normals","componentType":5126,"count":2738,"min":[-0.8568734526634216,-1,-0.5154784917831421],"max":[0.856724202632904,1,0.5153888463973999],"type":"VEC3","bufferView":1,"byteOffset":0},{"name":"Node-Mesh_0_indices","componentType":5123,"count":10272,"min":[0],"max":[2737],"type":"SCALAR","bufferView":2,"byteOffset":0}],"asset":{"generator":"obj2gltf","version":"2.0"},"buffers":[{"name":"input","byteLength":86256,"uri":"data:application/octet-stream;base64,"}],"bufferViews":[{"name":"bufferView_0","buffer":0,"byteLength":32856,"byteOffset":0,"byteStride":12,"target":34962},{"name":"bufferView_1","buffer":0,"byteLength":32856,"byteOffset":32856,"byteStride":12,"target":34962},{"name":"bufferView_3","buffer":0,"byteLength":20544,"byteOffset":65712,"target":34963}],"materials":[{"name":"diffuse_0_0_0_255","pbrMetallicRoughness":{"baseColorFactor":[0.5,0.5,0.5,1],"metallicFactor":0,"roughnessFactor":1},"emissiveFactor":[0,0,0],"alphaMode":"OPAQUE","doubleSided":false}],"meshes":[{"name":"Node-Mesh","primitives":[{"attributes":{"POSITION":0,"NORMAL":1},"indices":2,"material":0,"mode":4}]}],"nodes":[{"name":"Node","mesh":0}],"scene":0,"scenes":[{"nodes":[0]}]}
