{"accessors":[{"name":"Node-Mesh_0_positions","componentType":5126,"count":2430,"min":[19.26604652404785,12.664994239807129,-22.840225219726562],"max":[21.239334106445312,14.552667617797852,-21.031330108642578],"type":"VEC3","bufferView":0,"byteOffset":0},{"name":"Node-Mesh_0_normals","componentType":5126,"count":2430,"min":[-0.856631338596344,-1,-0.5153324007987976],"max":[0.8568862080574036,1,0.5154857039451599],"type":"VEC3","bufferView":1,"byteOffset":0},{"name":"Node-Mesh_0_indices","componentType":5123,"count":8316,"min":[0],"max":[2429],"type":"SCALAR","bufferView":2,"byteOffset":0}],"asset":{"generator":"obj2gltf","version":"2.0"},"buffers":[{"name":"input","byteLength":74952,"uri":"data:application/octet-stream;base64,"}],"bufferViews":[{"name":"bufferView_0","buffer":0,"byteLength":29160,"byteOffset":0,"byteStride":12,"target":34962},{"name":"bufferView_1","buffer":0,"byteLength":29160,"byteOffset":29160,"byteStride":12,"target":34962},{"name":"bufferView_3","buffer":0,"byteLength":16632,"byteOffset":58320,"target":34963}],"materials":[{"name":"diffuse_0_0_0_255","pbrMetallicRoughness":{"baseColorFactor":[0.5,0.5,0.5,1],"metallicFactor":0,"roughnessFactor":1},"emissiveFactor":[0,0,0],"alphaMode":"OPAQUE","doubleSided":false}],"meshes":[{"name":"Node-Mesh","primitives":[{"attributes":{"POSITION":0,"NORMAL":1},"indices":2,"material":0,"mode":4}]}],"nodes":[{"name":"Node","mesh":0}],"scene":0,"scenes":[{"nodes":[0]}]}
