{"accessors":[{"name":"Node-Mesh_0_positions","componentType":5126,"count":3126,"min":[7.037535190582275,12.645709991455078,-25.946077346801758],"max":[9.68529224395752,15.26094913482666,-24.604907989501953],"type":"VEC3","bufferView":0,"byteOffset":0},{"name":"Node-Mesh_0_normals","componentType":5126,"count":3126,"min":[-0.8568921685218811,-1,-0.5154893398284912],"max":[0.8568923473358154,1,0.515489399433136],"type":"VEC3","bufferView":1,"byteOffset":0},{"name":"Node-Mesh_0_indices","componentType":5123,"count":12192,"min":[0],"max":[3125],"type":"SCALAR","bufferView":2,"byteOffset":0}],"asset":{"generator":"obj2gltf","version":"2.0"},"buffers":[{"name":"input","byteLength":99408,"uri":"data:application/octet-stream;base64,"}],"bufferViews":[{"name":"bufferView_0","buffer":0,"byteLength":37512,"byteOffset":0,"byteStride":12,"target":34962},{"name":"bufferView_1","buffer":0,"byteLength":37512,"byteOffset":37512,"byteStride":12,"target":34962},{"name":"bufferView_3","buffer":0,"byteLength":24384,"byteOffset":75024,"target":34963}],"materials":[{"name":"diffuse_0_0_0_255","pbrMetallicRoughness":{"baseColorFactor":[0.5,0.5,0.5,1],"metallicFactor":0,"roughnessFactor":1},"emissiveFactor":[0,0,0],"alphaMode":"OPAQUE","doubleSided":false}],"meshes":[{"name":"Node-Mesh","primitives":[{"attributes":{"POSITION":0,"NORMAL":1},"indices":2,"material":0,"mode":4}]}],"nodes":[{"name":"Node","mesh":0}],"scene":0,"scenes":[{"nodes":[0]}]}
