{"accessors":[{"name":"Node-Mesh_0_positions","componentType":5126,"count":3118,"min":[17.61357879638672,12.66313362121582,-23.60356903076172],"max":[19.558237075805664,14.55382251739502,-21.948570251464844],"type":"VEC3","bufferView":0,"byteOffset":0},{"name":"Node-Mesh_0_normals","componentType":5126,"count":3118,"min":[-0.8568262457847595,-1,-0.5154496431350708],"max":[0.8566728830337524,1,0.5153573751449585],"type":"VEC3","bufferView":1,"byteOffset":0},{"name":"Node-Mesh_0_indices","componentType":5123,"count":12924,"min":[0],"max":[3117],"type":"SCALAR","bufferView":2,"byteOffset":0}],"asset":{"generator":"obj2gltf","version":"2.0"},"buffers":[{"name":"input","byteLength":100680,"uri":"data:application/octet-stream;base64,"}],"bufferViews":[{"name":"bufferView_0","buffer":0,"byteLength":37416,"byteOffset":0,"byteStride":12,"target":34962},{"name":"bufferView_1","buffer":0,"byteLength":37416,"byteOffset":37416,"byteStride":12,"target":34962},{"name":"bufferView_3","buffer":0,"byteLength":25848,"byteOffset":74832,"target":34963}],"materials":[{"name":"diffuse_0_0_0_255","pbrMetallicRoughness":{"baseColorFactor":[0.5,0.5,0.5,1],"metallicFactor":0,"roughnessFactor":1},"emissiveFactor":[0,0,0],"alphaMode":"OPAQUE","doubleSided":false}],"meshes":[{"name":"Node-Mesh","primitives":[{"attributes":{"POSITION":0,"NORMAL":1},"indices":2,"material":0,"mode":4}]}],"nodes":[{"name":"Node","mesh":0}],"scene":0,"scenes":[{"nodes":[0]}]}
