{"accessors":[{"name":"Node-Mesh_0_positions","componentType":5126,"count":3120,"min":[11.475872039794922,12.011805534362793,-25.22676658630371],"max":[13.905729293823242,14.552430152893066,-23.840869903564453],"type":"VEC3","bufferView":0,"byteOffset":0},{"name":"Node-Mesh_0_normals","componentType":5126,"count":3120,"min":[-0.8568896651268005,-1,-0.515487790107727],"max":[0.8568904995918274,1,0.51548832654953],"type":"VEC3","bufferView":1,"byteOffset":0},{"name":"Node-Mesh_0_indices","componentType":5123,"count":11604,"min":[0],"max":[3119],"type":"SCALAR","bufferView":2,"byteOffset":0}],"asset":{"generator":"obj2gltf","version":"2.0"},"buffers":[{"name":"input","byteLength":98088,"uri":"data:application/octet-stream;base64,"}],"bufferViews":[{"name":"bufferView_0","buffer":0,"byteLength":37440,"byteOffset":0,"byteStride":12,"target":34962},{"name":"bufferView_1","buffer":0,"byteLength":37440,"byteOffset":37440,"byteStride":12,"target":34962},{"name":"bufferView_3","buffer":0,"byteLength":23208,"byteOffset":74880,"target":34963}],"materials":[{"name":"diffuse_0_0_0_255","pbrMetallicRoughness":{"baseColorFactor":[0.5,0.5,0.5,1],"metallicFactor":0,"roughnessFactor":1},"emissiveFactor":[0,0,0],"alphaMode":"OPAQUE","doubleSided":false}],"meshes":[{"name":"Node-Mesh","primitives":[{"attributes":{"POSITION":0,"NORMAL":1},"indices":2,"material":0,"mode":4}]}],"nodes":[{"name":"Node","mesh":0}],"scene":0,"scenes":[{"nodes":[0]}]}
