{"accessors":[{"name":"Node-Mesh_0_positions","componentType":5126,"count":2304,"min":[9.524029731750488,12.664918899536133,-25.562732696533203],"max":[11.71583080291748,14.511805534362793,-24.21380043029785],"type":"VEC3","bufferView":0,"byteOffset":0},{"name":"Node-Mesh_0_normals","componentType":5126,"count":2304,"min":[-0.8568912744522095,-1,-0.5154888033866882],"max":[0.8568914532661438,1,0.515488862991333],"type":"VEC3","bufferView":1,"byteOffset":0},{"name":"Node-Mesh_0_indices","componentType":5123,"count":7416,"min":[0],"max":[2303],"type":"SCALAR","bufferView":2,"byteOffset":0}],"asset":{"generator":"obj2gltf","version":"2.0"},"buffers":[{"name":"input","byteLength":70128,"uri":"data:application/octet-stream;base64,"}],"bufferViews":[{"name":"bufferView_0","buffer":0,"byteLength":27648,"byteOffset":0,"byteStride":12,"target":34962},{"name":"bufferView_1","buffer":0,"byteLength":27648,"byteOffset":27648,"byteStride":12,"target":34962},{"name":"bufferView_3","buffer":0,"byteLength":14832,"byteOffset":55296,"target":34963}],"materials":[{"name":"diffuse_0_0_0_255","pbrMetallicRoughness":{"baseColorFactor":[0.5,0.5,0.5,1],"metallicFactor":0,"roughnessFactor":1},"emissiveFactor":[0,0,0],"alphaMode":"OPAQUE","doubleSided":false}],"meshes":[{"name":"Node-Mesh","primitives":[{"attributes":{"POSITION":0,"NORMAL":1},"indices":2,"material":0,"mode":4}]}],"nodes":[{"name":"Node","mesh":0}],"scene":0,"scenes":[{"nodes":[0]}]}
