{"accessors":[{"name":"Node-Mesh_0_positions","componentType":5126,"count":1110,"min":[15.716370582580566,12.663277626037598,-24.217636108398438],"max":[17.958431243896484,14.553595542907715,-22.695919036865234],"type":"VEC3","bufferView":0,"byteOffset":0},{"name":"Node-Mesh_0_normals","componentType":5126,"count":1110,"min":[-0.8568874001502991,-0.9998113512992859,-0.5154864192008972],"max":[0.8568882346153259,1,0.5154868960380554],"type":"VEC3","bufferView":1,"byteOffset":0},{"name":"Node-Mesh_0_indices","componentType":5123,"count":3792,"min":[0],"max":[1109],"type":"SCALAR","bufferView":2,"byteOffset":0}],"asset":{"generator":"obj2gltf","version":"2.0"},"buffers":[{"name":"input","byteLength":34224,"uri":"data:application/octet-stream;base64,"}],"bufferViews":[{"name":"bufferView_0","buffer":0,"byteLength":13320,"byteOffset":0,"byteStride":12,"target":34962},{"name":"bufferView_1","buffer":0,"byteLength":13320,"byteOffset":13320,"byteStride":12,"target":34962},{"name":"bufferView_3","buffer":0,"byteLength":7584,"byteOffset":26640,"target":34963}],"materials":[{"name":"diffuse_0_0_0_255","pbrMetallicRoughness":{"baseColorFactor":[0.5,0.5,0.5,1],"metallicFactor":0,"roughnessFactor":1},"emissiveFactor":[0,0,0],"alphaMode":"OPAQUE","doubleSided":false}],"meshes":[{"name":"Node-Mesh","primitives":[{"attributes":{"POSITION":0,"NORMAL":1},"indices":2,"material":0,"mode":4}]}],"nodes":[{"name":"Node","mesh":0}],"scene":0,"scenes":[{"nodes":[0]}]}
