{"accessors":[{"name":"Node-Mesh_0_positions","componentType":5126,"count":2304,"min":[13.605975151062012,12.011805534362793,-24.807044982910156],"max":[16.003986358642578,14.5525484085083,-23.32427406311035],"type":"VEC3","bufferView":0,"byteOffset":0},{"name":"Node-Mesh_0_normals","componentType":5126,"count":2304,"min":[-0.856889009475708,-1,-0.5154874324798584],"max":[0.8568894267082214,1,0.5154876112937927],"type":"VEC3","bufferView":1,"byteOffset":0},{"name":"Node-Mesh_0_indices","componentType":5123,"count":7968,"min":[0],"max":[2303],"type":"SCALAR","bufferView":2,"byteOffset":0}],"asset":{"generator":"obj2gltf","version":"2.0"},"buffers":[{"name":"input","byteLength":71232,"uri":"data:application/octet-stream;base64,"}],"bufferViews":[{"name":"bufferView_0","buffer":0,"byteLength":27648,"byteOffset":0,"byteStride":12,"target":34962},{"name":"bufferView_1","buffer":0,"byteLength":27648,"byteOffset":27648,"byteStride":12,"target":34962},{"name":"bufferView_3","buffer":0,"byteLength":15936,"byteOffset":55296,"target":34963}],"materials":[{"name":"diffuse_0_0_0_255","pbrMetallicRoughness":{"baseColorFactor":[0.5,0.5,0.5,1],"metallicFactor":0,"roughnessFactor":1},"emissiveFactor":[0,0,0],"alphaMode":"OPAQUE","doubleSided":false}],"meshes":[{"name":"Node-Mesh","primitives":[{"attributes":{"POSITION":0,"NORMAL":1},"indices":2,"material":0,"mode":4}]}],"nodes":[{"name":"Node","mesh":0}],"scene":0,"scenes":[{"nodes":[0]}]}
